<?xml version="1.0" encoding="utf-8" standalone="no"?>
<!DOCTYPE svg PUBLIC "-//W3C//DTD SVG 1.1//EN"
  "http://www.w3.org/Graphics/SVG/1.1/DTD/svg11.dtd">
<svg xmlns:xlink="http://www.w3.org/1999/xlink" width="500.935938pt" height="238.699375pt" viewBox="0 0 500.935938 238.699375" xmlns="http://www.w3.org/2000/svg" version="1.1">
 <metadata>
  <rdf:RDF xmlns:dc="http://purl.org/dc/elements/1.1/" xmlns:cc="http://creativecommons.org/ns#" xmlns:rdf="http://www.w3.org/1999/02/22-rdf-syntax-ns#">
   <cc:Work>
    <dc:type rdf:resource="http://purl.org/dc/dcmitype/StillImage"/>
    <dc:date>2026-01-19T00:26:26.168927</dc:date>
    <dc:format>image/svg+xml</dc:format>
    <dc:creator>
     <cc:Agent>
      <dc:title>Matplotlib v3.9.2, https://matplotlib.org/</dc:title>
     </cc:Agent>
    </dc:creator>
   </cc:Work>
  </rdf:RDF>
 </metadata>
 <defs>
  <style type="text/css">*{stroke-linejoin: round; stroke-linecap: butt}</style>
 </defs>
 <g id="figure_1">
  <g id="patch_1">
   <path d="M 0 238.699375 
L 500.935938 238.699375 
L 500.935938 0 
L 0 0 
z
" style="fill: #ffffff"/>
  </g>
  <g id="axes_1">
   <g id="patch_2">
    <path d="M 47.335938 201.24 
L 493.735937 201.24 
L 493.735937 7.2 
L 47.335938 7.2 
z
" style="fill: #ffffff"/>
   </g>
   <g id="matplotlib.axis_1">
    <g id="xtick_1">
     <g id="line2d_1">
      <defs>
       <path id="m76d2e33d42" d="M 0 0 
L 0 3.5 
" style="stroke: #000000; stroke-width: 0.8"/>
      </defs>
      <g>
       <use xlink:href="#m76d2e33d42" x="67.626847" y="201.24" style="stroke: #000000; stroke-width: 0.8"/>
      </g>
     </g>
     <g id="text_1">
      <!-- 5.0 -->
      <g transform="translate(60.007315 215.730625) scale(0.1 -0.1)">
       <defs>
        <path id="IPAexGothic-35" d="M 1178 2603 
Q 1634 2963 2172 2963 
Q 2816 2963 3241 2528 
Q 3638 2113 3638 1497 
Q 3638 938 3297 513 
Q 2869 -31 2031 -31 
Q 959 -31 469 784 
L 938 1028 
Q 1309 434 2013 434 
Q 2466 434 2769 716 
Q 3081 1013 3081 1503 
Q 3081 1966 2806 2241 
Q 2519 2528 2056 2528 
Q 1406 2528 1072 2028 
L 591 2091 
L 884 4634 
L 3406 4634 
L 3406 4153 
L 1341 4153 
L 1134 2603 
L 1178 2603 
z
" transform="scale(0.015625)"/>
        <path id="IPAexGothic-2e" d="M 1184 63 
L 494 63 
L 494 753 
L 1184 753 
L 1184 63 
z
" transform="scale(0.015625)"/>
        <path id="IPAexGothic-30" d="M 2038 4725 
Q 2881 4725 3334 3944 
Q 3694 3325 3694 2344 
Q 3694 1372 3334 741 
Q 2888 -31 2016 -31 
Q 1147 -31 700 741 
Q 341 1372 341 2350 
Q 341 3713 1000 4334 
Q 1419 4725 2038 4725 
z
M 2016 4266 
Q 1516 4266 1228 3759 
Q 934 3247 934 2344 
Q 934 1456 1222 947 
Q 1513 447 2016 447 
Q 2619 447 2909 1153 
Q 3100 1622 3100 2375 
Q 3100 3256 2806 3759 
Q 2509 4266 2016 4266 
z
" transform="scale(0.015625)"/>
       </defs>
       <use xlink:href="#IPAexGothic-35"/>
       <use xlink:href="#IPAexGothic-2e" x="62.988281"/>
       <use xlink:href="#IPAexGothic-30" x="89.404297"/>
      </g>
     </g>
    </g>
    <g id="xtick_2">
     <g id="line2d_2">
      <g>
       <use xlink:href="#m76d2e33d42" x="148.790483" y="201.24" style="stroke: #000000; stroke-width: 0.8"/>
      </g>
     </g>
     <g id="text_2">
      <!-- 5.5 -->
      <g transform="translate(141.170952 215.730625) scale(0.1 -0.1)">
       <use xlink:href="#IPAexGothic-35"/>
       <use xlink:href="#IPAexGothic-2e" x="62.988281"/>
       <use xlink:href="#IPAexGothic-35" x="89.404297"/>
      </g>
     </g>
    </g>
    <g id="xtick_3">
     <g id="line2d_3">
      <g>
       <use xlink:href="#m76d2e33d42" x="229.954119" y="201.24" style="stroke: #000000; stroke-width: 0.8"/>
      </g>
     </g>
     <g id="text_3">
      <!-- 6.0 -->
      <g transform="translate(222.334588 215.730625) scale(0.1 -0.1)">
       <defs>
        <path id="IPAexGothic-36" d="M 1056 2328 
Q 1509 2981 2234 2981 
Q 2906 2981 3316 2513 
Q 3675 2106 3675 1522 
Q 3675 884 3272 434 
Q 2853 -31 2178 -31 
Q 1375 -31 922 581 
Q 481 1178 481 2228 
Q 481 3425 1013 4109 
Q 1494 4725 2272 4725 
Q 3191 4725 3609 4025 
L 3150 3775 
Q 2894 4266 2300 4266 
Q 1119 4266 1031 2328 
L 1056 2328 
z
M 2141 2547 
Q 1684 2547 1384 2206 
Q 1116 1900 1116 1541 
Q 1116 1156 1353 844 
Q 1672 428 2159 428 
Q 2669 428 2941 844 
Q 3125 1128 3125 1503 
Q 3125 1944 2881 2228 
Q 2600 2547 2141 2547 
z
" transform="scale(0.015625)"/>
       </defs>
       <use xlink:href="#IPAexGothic-36"/>
       <use xlink:href="#IPAexGothic-2e" x="62.988281"/>
       <use xlink:href="#IPAexGothic-30" x="89.404297"/>
      </g>
     </g>
    </g>
    <g id="xtick_4">
     <g id="line2d_4">
      <g>
       <use xlink:href="#m76d2e33d42" x="311.117756" y="201.24" style="stroke: #000000; stroke-width: 0.8"/>
      </g>
     </g>
     <g id="text_4">
      <!-- 6.5 -->
      <g transform="translate(303.498224 215.730625) scale(0.1 -0.1)">
       <use xlink:href="#IPAexGothic-36"/>
       <use xlink:href="#IPAexGothic-2e" x="62.988281"/>
       <use xlink:href="#IPAexGothic-35" x="89.404297"/>
      </g>
     </g>
    </g>
    <g id="xtick_5">
     <g id="line2d_5">
      <g>
       <use xlink:href="#m76d2e33d42" x="392.281392" y="201.24" style="stroke: #000000; stroke-width: 0.8"/>
      </g>
     </g>
     <g id="text_5">
      <!-- 7.0 -->
      <g transform="translate(384.661861 215.730625) scale(0.1 -0.1)">
       <defs>
        <path id="IPAexGothic-37" d="M 3597 4263 
Q 2238 2106 1778 63 
L 1131 63 
Q 1581 1834 2950 4128 
L 428 4128 
L 428 4634 
L 3597 4634 
L 3597 4263 
z
" transform="scale(0.015625)"/>
       </defs>
       <use xlink:href="#IPAexGothic-37"/>
       <use xlink:href="#IPAexGothic-2e" x="62.988281"/>
       <use xlink:href="#IPAexGothic-30" x="89.404297"/>
      </g>
     </g>
    </g>
    <g id="xtick_6">
     <g id="line2d_6">
      <g>
       <use xlink:href="#m76d2e33d42" x="473.445028" y="201.24" style="stroke: #000000; stroke-width: 0.8"/>
      </g>
     </g>
     <g id="text_6">
      <!-- 7.5 -->
      <g transform="translate(465.825497 215.730625) scale(0.1 -0.1)">
       <use xlink:href="#IPAexGothic-37"/>
       <use xlink:href="#IPAexGothic-2e" x="62.988281"/>
       <use xlink:href="#IPAexGothic-35" x="89.404297"/>
      </g>
     </g>
    </g>
    <g id="text_7">
     <!-- 経過時間[s] -->
     <g transform="translate(245.228125 229.599375) scale(0.1 -0.1)">
      <defs>
       <path id="IPAexGothic-7d4c" d="M 1291 3059 
Q 922 3606 419 4109 
L 722 4425 
Q 778 4359 856 4272 
Q 928 4194 944 4175 
Q 1334 4731 1591 5325 
L 2025 5116 
Q 1550 4313 1188 3878 
Q 1378 3638 1534 3413 
Q 1853 3897 2213 4566 
L 2616 4341 
Q 1959 3263 1366 2563 
Q 1531 2566 2331 2625 
Q 2228 2897 2069 3200 
L 2403 3363 
Q 2688 2894 2863 2369 
Q 3497 2672 4106 3200 
Q 3563 3734 3166 4481 
L 2813 4481 
L 2813 4884 
L 5444 4884 
L 5681 4653 
Q 5306 3906 4706 3241 
Q 5334 2806 6097 2550 
L 5822 2113 
Q 4988 2459 4406 2931 
Q 3781 2353 3025 1947 
L 2819 2234 
L 2519 2075 
Q 2494 2178 2459 2272 
L 2447 2313 
Q 2159 2266 1866 2222 
L 1866 -447 
L 1444 -447 
L 1444 2172 
L 1353 2166 
Q 1031 2131 447 2081 
L 319 2522 
Q 759 2531 919 2541 
Q 1066 2738 1291 3059 
z
M 4400 3491 
Q 4819 3938 5091 4481 
L 3600 4481 
Q 3897 3934 4400 3491 
z
M 4141 1600 
L 4141 2438 
L 4581 2438 
L 4581 1600 
L 5741 1600 
L 5741 1197 
L 4581 1197 
L 4581 178 
L 6047 178 
L 6047 -225 
L 2753 -225 
L 2753 178 
L 4141 178 
L 4141 1197 
L 3034 1197 
L 3034 1600 
L 4141 1600 
z
M 397 219 
Q 644 900 709 1759 
L 1119 1709 
Q 1031 681 813 -19 
L 397 219 
z
M 2400 384 
Q 2278 1109 2047 1747 
L 2413 1856 
Q 2659 1281 2809 569 
L 2400 384 
z
" transform="scale(0.015625)"/>
       <path id="IPAexGothic-904e" d="M 1703 741 
Q 1975 363 2503 209 
Q 2903 94 3928 94 
Q 4897 94 6131 178 
Q 6025 -59 5978 -300 
Q 4931 -341 4384 -341 
Q 2819 -341 2234 -128 
Q 1759 44 1525 397 
Q 1113 -81 653 -447 
L 372 19 
Q 900 341 1269 672 
L 1269 2303 
L 378 2303 
L 378 2731 
L 1703 2731 
L 1703 741 
z
M 5338 2778 
L 2594 2778 
L 2594 428 
L 2178 428 
L 2178 3138 
L 2594 3138 
L 2594 5025 
L 5338 5025 
L 5338 3138 
L 5753 3138 
L 5753 878 
Q 5753 597 5638 513 
Q 5547 441 5313 441 
Q 5016 441 4709 481 
L 4659 903 
Q 4956 850 5184 850 
Q 5338 850 5338 1019 
L 5338 2778 
z
M 4934 3138 
L 4934 3784 
L 4041 3784 
L 4041 3138 
L 4934 3138 
z
M 3663 3138 
L 3663 4116 
L 4934 4116 
L 4934 4666 
L 3003 4666 
L 3003 3138 
L 3663 3138 
z
M 4750 2350 
L 4750 1113 
L 3469 1113 
L 3469 778 
L 3091 778 
L 3091 2350 
L 4750 2350 
z
M 3469 2019 
L 3469 1453 
L 4372 1453 
L 4372 2019 
L 3469 2019 
z
M 1522 3775 
Q 1053 4353 563 4738 
L 878 5056 
Q 1497 4566 1869 4122 
L 1522 3775 
z
" transform="scale(0.015625)"/>
       <path id="IPAexGothic-6642" d="M 2328 4728 
L 2328 563 
L 934 563 
L 934 56 
L 519 56 
L 519 4728 
L 2328 4728 
z
M 934 4331 
L 934 2881 
L 1906 2881 
L 1906 4331 
L 934 4331 
z
M 934 2497 
L 934 953 
L 1906 953 
L 1906 2497 
L 934 2497 
z
M 3938 4372 
L 3938 5313 
L 4378 5313 
L 4378 4372 
L 5772 4372 
L 5772 3981 
L 4378 3981 
L 4378 3194 
L 6072 3194 
L 6072 2803 
L 5203 2803 
L 5203 2047 
L 5959 2047 
L 5959 1650 
L 5216 1650 
L 5216 31 
Q 5216 -447 4691 -447 
Q 4394 -447 3888 -391 
L 3784 78 
Q 4272 0 4591 0 
Q 4775 0 4775 172 
L 4775 1650 
L 2581 1650 
L 2581 2047 
L 4763 2047 
L 4763 2803 
L 2538 2803 
L 2538 3194 
L 3938 3194 
L 3938 3981 
L 2716 3981 
L 2716 4372 
L 3938 4372 
z
M 3669 384 
Q 3331 950 2956 1325 
L 3291 1575 
Q 3719 1147 4025 659 
L 3669 384 
z
" transform="scale(0.015625)"/>
       <path id="IPAexGothic-9593" d="M 4450 2566 
L 4450 353 
L 2375 353 
L 2375 -25 
L 1953 -25 
L 1953 2566 
L 4450 2566 
z
M 4028 2200 
L 2375 2200 
L 2375 1653 
L 4028 1653 
L 4028 2200 
z
M 4028 1300 
L 2375 1300 
L 2375 719 
L 4028 719 
L 4028 1300 
z
M 2913 5019 
L 2913 3059 
L 1056 3059 
L 1056 -447 
L 609 -447 
L 609 5019 
L 2913 5019 
z
M 1056 4659 
L 1056 4206 
L 2497 4206 
L 2497 4659 
L 1056 4659 
z
M 1056 3881 
L 1056 3413 
L 2497 3413 
L 2497 3881 
L 1056 3881 
z
M 5788 5019 
L 5788 91 
Q 5788 -225 5641 -331 
Q 5525 -409 5231 -409 
Q 4803 -409 4481 -366 
L 4419 97 
Q 4853 38 5128 38 
Q 5341 38 5341 244 
L 5341 3059 
L 3438 3059 
L 3438 5019 
L 5788 5019 
z
M 3853 4659 
L 3853 4206 
L 5341 4206 
L 5341 4659 
L 3853 4659 
z
M 3853 3881 
L 3853 3413 
L 5341 3413 
L 5341 3881 
L 3853 3881 
z
" transform="scale(0.015625)"/>
       <path id="IPAexGothic-5b" d="M 1706 -991 
L 581 -991 
L 581 4750 
L 1706 4750 
L 1706 4438 
L 1028 4438 
L 1028 -678 
L 1706 -678 
L 1706 -991 
z
" transform="scale(0.015625)"/>
       <path id="IPAexGothic-73" d="M 2234 2547 
Q 1938 2931 1484 2931 
Q 891 2931 891 2475 
Q 891 2153 1531 1944 
L 1741 1875 
Q 2650 1578 2650 894 
Q 2650 434 2272 172 
Q 1972 -31 1497 -31 
Q 766 -31 256 503 
L 603 819 
Q 997 397 1516 397 
Q 2131 397 2131 875 
Q 2131 1238 1453 1478 
L 1234 1553 
Q 378 1853 378 2431 
Q 378 2797 628 3047 
Q 928 3347 1453 3347 
Q 2156 3347 2606 2859 
L 2234 2547 
z
" transform="scale(0.015625)"/>
       <path id="IPAexGothic-5d" d="M 1322 -991 
L 197 -991 
L 197 -678 
L 875 -678 
L 875 4438 
L 197 4438 
L 197 4750 
L 1322 4750 
L 1322 -991 
z
" transform="scale(0.015625)"/>
      </defs>
      <use xlink:href="#IPAexGothic-7d4c"/>
      <use xlink:href="#IPAexGothic-904e" x="100"/>
      <use xlink:href="#IPAexGothic-6642" x="200"/>
      <use xlink:href="#IPAexGothic-9593" x="300"/>
      <use xlink:href="#IPAexGothic-5b" x="400"/>
      <use xlink:href="#IPAexGothic-73" x="429.980469"/>
      <use xlink:href="#IPAexGothic-5d" x="476.171875"/>
     </g>
    </g>
   </g>
   <g id="matplotlib.axis_2">
    <g id="ytick_1">
     <g id="line2d_7">
      <defs>
       <path id="m9f3d9b12cc" d="M 0 0 
L -3.5 0 
" style="stroke: #000000; stroke-width: 0.8"/>
      </defs>
      <g>
       <use xlink:href="#m9f3d9b12cc" x="47.335938" y="183.314234" style="stroke: #000000; stroke-width: 0.8"/>
      </g>
     </g>
     <g id="text_8">
      <!-- −76 -->
      <g transform="translate(20.95625 187.059546) scale(0.1 -0.1)">
       <defs>
        <path id="IPAexGothic-2212" d="M 416 2222 
L 3922 2222 
L 3922 1856 
L 416 1856 
L 416 2222 
z
" transform="scale(0.015625)"/>
       </defs>
       <use xlink:href="#IPAexGothic-2212"/>
       <use xlink:href="#IPAexGothic-37" x="67.822266"/>
       <use xlink:href="#IPAexGothic-36" x="130.810547"/>
      </g>
     </g>
    </g>
    <g id="ytick_2">
     <g id="line2d_8">
      <g>
       <use xlink:href="#m9f3d9b12cc" x="47.335938" y="159.096771" style="stroke: #000000; stroke-width: 0.8"/>
      </g>
     </g>
     <g id="text_9">
      <!-- −74 -->
      <g transform="translate(20.95625 162.842084) scale(0.1 -0.1)">
       <defs>
        <path id="IPAexGothic-34" d="M 3813 1159 
L 3059 1159 
L 3059 63 
L 2547 63 
L 2547 1159 
L 197 1159 
L 197 1672 
L 2456 4678 
L 3059 4678 
L 3059 1634 
L 3813 1634 
L 3813 1159 
z
M 2578 4109 
L 2559 4109 
Q 2278 3656 2003 3284 
L 759 1634 
L 2547 1634 
L 2547 3144 
Q 2547 3481 2578 4109 
z
" transform="scale(0.015625)"/>
       </defs>
       <use xlink:href="#IPAexGothic-2212"/>
       <use xlink:href="#IPAexGothic-37" x="67.822266"/>
       <use xlink:href="#IPAexGothic-34" x="130.810547"/>
      </g>
     </g>
    </g>
    <g id="ytick_3">
     <g id="line2d_9">
      <g>
       <use xlink:href="#m9f3d9b12cc" x="47.335938" y="134.879308" style="stroke: #000000; stroke-width: 0.8"/>
      </g>
     </g>
     <g id="text_10">
      <!-- −72 -->
      <g transform="translate(20.95625 138.624621) scale(0.1 -0.1)">
       <defs>
        <path id="IPAexGothic-32" d="M 3659 63 
L 447 63 
L 447 594 
Q 825 1475 1894 2203 
L 2072 2322 
Q 2619 2697 2791 2906 
Q 2988 3153 2988 3444 
Q 2988 3772 2756 4003 
Q 2500 4259 2084 4259 
Q 1250 4259 991 3328 
L 497 3506 
Q 853 4725 2116 4725 
Q 2806 4725 3216 4316 
Q 3575 3947 3575 3425 
Q 3575 3038 3344 2722 
Q 3131 2416 2366 1938 
L 2231 1856 
Q 1256 1253 978 569 
L 3659 569 
L 3659 63 
z
" transform="scale(0.015625)"/>
       </defs>
       <use xlink:href="#IPAexGothic-2212"/>
       <use xlink:href="#IPAexGothic-37" x="67.822266"/>
       <use xlink:href="#IPAexGothic-32" x="130.810547"/>
      </g>
     </g>
    </g>
    <g id="ytick_4">
     <g id="line2d_10">
      <g>
       <use xlink:href="#m9f3d9b12cc" x="47.335938" y="110.661845" style="stroke: #000000; stroke-width: 0.8"/>
      </g>
     </g>
     <g id="text_11">
      <!-- −70 -->
      <g transform="translate(20.95625 114.407158) scale(0.1 -0.1)">
       <use xlink:href="#IPAexGothic-2212"/>
       <use xlink:href="#IPAexGothic-37" x="67.822266"/>
       <use xlink:href="#IPAexGothic-30" x="130.810547"/>
      </g>
     </g>
    </g>
    <g id="ytick_5">
     <g id="line2d_11">
      <g>
       <use xlink:href="#m9f3d9b12cc" x="47.335938" y="86.444382" style="stroke: #000000; stroke-width: 0.8"/>
      </g>
     </g>
     <g id="text_12">
      <!-- −68 -->
      <g transform="translate(20.95625 90.189695) scale(0.1 -0.1)">
       <defs>
        <path id="IPAexGothic-38" d="M 2541 2425 
Q 3700 2031 3700 1197 
Q 3700 541 3100 197 
Q 2663 -56 2016 -56 
Q 1366 -56 928 197 
Q 347 531 347 1178 
Q 347 1988 1409 2381 
L 1409 2400 
Q 481 2734 481 3509 
Q 481 4100 981 4456 
Q 1406 4756 2019 4756 
Q 2703 4756 3131 4403 
Q 3553 4069 3553 3566 
Q 3553 2706 2541 2444 
L 2541 2425 
z
M 2022 2625 
Q 2997 2856 2997 3528 
Q 2997 3916 2675 4150 
Q 2413 4347 2016 4347 
Q 1606 4347 1331 4128 
Q 1050 3897 1050 3522 
Q 1050 3150 1350 2925 
Q 1494 2809 1722 2722 
Q 1984 2616 2022 2625 
z
M 1978 2209 
Q 922 1931 922 1216 
Q 922 775 1313 556 
Q 1606 391 2009 391 
Q 2575 391 2881 697 
Q 3106 922 3106 1250 
Q 3106 1594 2794 1850 
Q 2609 1994 2350 2100 
Q 2047 2222 1978 2209 
z
" transform="scale(0.015625)"/>
       </defs>
       <use xlink:href="#IPAexGothic-2212"/>
       <use xlink:href="#IPAexGothic-36" x="67.822266"/>
       <use xlink:href="#IPAexGothic-38" x="130.810547"/>
      </g>
     </g>
    </g>
    <g id="ytick_6">
     <g id="line2d_12">
      <g>
       <use xlink:href="#m9f3d9b12cc" x="47.335938" y="62.226919" style="stroke: #000000; stroke-width: 0.8"/>
      </g>
     </g>
     <g id="text_13">
      <!-- −66 -->
      <g transform="translate(20.95625 65.972232) scale(0.1 -0.1)">
       <use xlink:href="#IPAexGothic-2212"/>
       <use xlink:href="#IPAexGothic-36" x="67.822266"/>
       <use xlink:href="#IPAexGothic-36" x="130.810547"/>
      </g>
     </g>
    </g>
    <g id="ytick_7">
     <g id="line2d_13">
      <g>
       <use xlink:href="#m9f3d9b12cc" x="47.335938" y="38.009456" style="stroke: #000000; stroke-width: 0.8"/>
      </g>
     </g>
     <g id="text_14">
      <!-- −64 -->
      <g transform="translate(20.95625 41.754769) scale(0.1 -0.1)">
       <use xlink:href="#IPAexGothic-2212"/>
       <use xlink:href="#IPAexGothic-36" x="67.822266"/>
       <use xlink:href="#IPAexGothic-34" x="130.810547"/>
      </g>
     </g>
    </g>
    <g id="ytick_8">
     <g id="line2d_14">
      <g>
       <use xlink:href="#m9f3d9b12cc" x="47.335938" y="13.791993" style="stroke: #000000; stroke-width: 0.8"/>
      </g>
     </g>
     <g id="text_15">
      <!-- −62 -->
      <g transform="translate(20.95625 17.537306) scale(0.1 -0.1)">
       <use xlink:href="#IPAexGothic-2212"/>
       <use xlink:href="#IPAexGothic-36" x="67.822266"/>
       <use xlink:href="#IPAexGothic-32" x="130.810547"/>
      </g>
     </g>
    </g>
    <g id="text_16">
     <!-- 受信電力レベル[dBm] -->
     <g transform="translate(15.05625 152.990312) rotate(-90) scale(0.1 -0.1)">
      <defs>
       <path id="IPAexGothic-53d7" d="M 1781 3347 
Q 1775 3363 1756 3403 
Q 1738 3441 1728 3463 
Q 1591 3800 1416 4056 
L 1838 4184 
Q 2084 3834 2278 3347 
L 3066 3347 
Q 2928 3744 2675 4172 
L 3103 4281 
Q 3359 3863 3559 3347 
L 4019 3347 
Q 4278 3800 4538 4441 
L 4997 4300 
Q 4769 3788 4484 3347 
L 5747 3347 
L 5747 2078 
L 5278 2078 
L 5278 2944 
L 1116 2944 
L 1116 2078 
L 647 2078 
L 647 3347 
L 1781 3347 
z
M 3663 731 
Q 4431 313 5947 91 
L 5606 -375 
Q 4219 -100 3278 463 
Q 2184 -206 781 -491 
L 500 -63 
Q 1875 150 2894 731 
Q 2244 1228 1734 1947 
L 1384 1947 
L 1384 2350 
L 4725 2350 
L 4953 2144 
Q 4428 1309 3663 731 
z
M 3272 981 
Q 3947 1475 4288 1947 
L 2228 1947 
Q 2656 1419 3272 981 
z
M 775 4647 
Q 3241 4716 4922 5141 
L 5294 4738 
Q 3472 4347 981 4213 
L 775 4647 
z
" transform="scale(0.015625)"/>
       <path id="IPAexGothic-4fe1" d="M 1572 3809 
L 1572 -447 
L 1119 -447 
L 1119 2847 
Q 856 2372 550 1972 
L 300 2363 
Q 1172 3550 1566 5253 
L 2013 5147 
Q 1819 4428 1572 3809 
z
M 5534 1619 
L 5534 -447 
L 5081 -447 
L 5081 -116 
L 2763 -116 
L 2763 -447 
L 2316 -447 
L 2316 1619 
L 5534 1619 
z
M 2763 1234 
L 2763 269 
L 5081 269 
L 5081 1234 
L 2763 1234 
z
M 2475 4984 
L 5375 4984 
L 5375 4588 
L 2475 4588 
L 2475 4984 
z
M 2475 3297 
L 5375 3297 
L 5375 2906 
L 2475 2906 
L 2475 3297 
z
M 2475 2456 
L 5375 2456 
L 5375 2066 
L 2475 2066 
L 2475 2456 
z
M 1894 4147 
L 6003 4147 
L 6003 3738 
L 1894 3738 
L 1894 4147 
z
" transform="scale(0.015625)"/>
       <path id="IPAexGothic-96fb" d="M 2956 4378 
L 2956 4741 
L 1053 4741 
L 1053 5106 
L 5338 5106 
L 5338 4741 
L 3397 4741 
L 3397 4378 
L 5797 4378 
L 5797 3084 
L 5344 3084 
L 5344 4031 
L 3397 4031 
L 3397 2638 
L 2956 2638 
L 2956 4031 
L 1047 4031 
L 1047 3072 
L 594 3072 
L 594 4378 
L 2956 4378 
z
M 3363 544 
L 3363 238 
Q 3363 59 3497 31 
Q 3600 6 4491 6 
Q 5219 6 5347 31 
Q 5556 78 5584 281 
Q 5609 500 5616 684 
L 6038 556 
Q 6028 -109 5797 -256 
Q 5619 -378 4419 -378 
Q 3256 -378 3128 -313 
Q 2959 -225 2959 91 
L 2959 544 
L 1456 544 
L 1456 166 
L 1034 166 
L 1034 2400 
L 5316 2400 
L 5316 544 
L 3363 544 
z
M 2959 2059 
L 1456 2059 
L 1456 1666 
L 2959 1666 
L 2959 2059 
z
M 3363 2059 
L 3363 1666 
L 4900 1666 
L 4900 2059 
L 3363 2059 
z
M 2959 1325 
L 1456 1325 
L 1456 897 
L 2959 897 
L 2959 1325 
z
M 3363 1325 
L 3363 897 
L 4900 897 
L 4900 1325 
L 3363 1325 
z
M 1338 3688 
L 2663 3688 
L 2663 3375 
L 1338 3375 
L 1338 3688 
z
M 1338 3072 
L 2663 3072 
L 2663 2753 
L 1338 2753 
L 1338 3072 
z
M 3691 3688 
L 5053 3688 
L 5053 3375 
L 3691 3375 
L 3691 3688 
z
M 3691 3072 
L 5053 3072 
L 5053 2753 
L 3691 2753 
L 3691 3072 
z
" transform="scale(0.015625)"/>
       <path id="IPAexGothic-529b" d="M 3303 3944 
L 5653 3944 
Q 5622 1247 5428 356 
Q 5303 -231 4647 -231 
Q 4159 -231 3456 -147 
L 3381 416 
Q 4022 263 4456 263 
Q 4881 263 4947 616 
Q 5106 1509 5134 3303 
L 5141 3509 
L 3291 3509 
Q 3234 2200 2741 1281 
Q 2194 297 878 -416 
L 525 -6 
Q 2709 963 2778 3450 
L 641 3450 
L 641 3891 
L 2784 3891 
L 2784 5147 
L 3303 5147 
L 3303 3944 
z
" transform="scale(0.015625)"/>
       <path id="IPAexGothic-30ec" d="M 1538 4706 
L 2075 4706 
L 2075 622 
Q 4059 1375 5172 2894 
L 5481 2431 
Q 4922 1678 3931 1019 
Q 2919 334 1928 -31 
L 1538 269 
L 1538 4706 
z
" transform="scale(0.015625)"/>
       <path id="IPAexGothic-30d9" d="M 428 1991 
Q 1119 2547 2100 3681 
Q 2356 3975 2566 3975 
Q 2772 3975 3181 3584 
Q 4328 2475 5950 1356 
L 5600 863 
Q 3994 2081 2816 3241 
Q 2653 3394 2584 3394 
Q 2513 3394 2291 3125 
Q 1706 2384 775 1528 
L 428 1991 
z
M 5356 3719 
Q 4994 4259 4600 4588 
L 4903 4819 
Q 5288 4509 5675 3994 
L 5356 3719 
z
M 4759 3250 
Q 4472 3741 4025 4141 
L 4338 4381 
Q 4709 4075 5094 3525 
L 4759 3250 
z
" transform="scale(0.015625)"/>
       <path id="IPAexGothic-30eb" d="M 353 331 
Q 1313 994 1544 2022 
Q 1684 2650 1684 4397 
L 2203 4397 
L 2203 4153 
L 2203 4116 
Q 2203 2259 1934 1491 
Q 1619 588 744 -38 
L 353 331 
z
M 3125 4666 
L 3650 4666 
L 3650 769 
Q 4875 1488 5672 2734 
L 6000 2278 
Q 5075 966 3516 63 
L 3125 359 
L 3125 4666 
z
" transform="scale(0.015625)"/>
       <path id="IPAexGothic-64" d="M 3391 63 
L 2891 63 
L 2891 619 
Q 2441 -31 1753 -31 
Q 1181 -31 788 372 
Q 313 844 313 1663 
Q 313 2466 772 2938 
Q 1169 3341 1753 3341 
Q 2384 3341 2847 2809 
L 2847 4794 
L 3391 4794 
L 3391 63 
z
M 2847 1303 
L 2847 2097 
Q 2847 2413 2456 2706 
Q 2181 2906 1853 2906 
Q 1484 2906 1228 2650 
Q 888 2309 888 1678 
Q 888 1109 1169 750 
Q 1441 409 1847 409 
Q 2322 409 2656 875 
Q 2847 1134 2847 1303 
z
" transform="scale(0.015625)"/>
       <path id="IPAexGothic-42" d="M 2688 2425 
Q 3816 2225 3816 1338 
Q 3816 556 3041 222 
Q 2672 63 2094 63 
L 609 63 
L 609 4634 
L 1916 4634 
Q 2494 4634 2869 4500 
Q 3644 4222 3644 3491 
Q 3644 2609 2688 2447 
L 2688 2425 
z
M 1159 2656 
L 1844 2656 
Q 3063 2656 3063 3431 
Q 3063 4181 1881 4181 
L 1159 4181 
L 1159 2656 
z
M 1159 522 
L 2016 522 
Q 3222 522 3222 1369 
Q 3222 1897 2625 2100 
Q 2278 2222 1875 2222 
L 1159 2222 
L 1159 522 
z
" transform="scale(0.015625)"/>
       <path id="IPAexGothic-6d" d="M 5022 63 
L 4472 63 
L 4472 2059 
Q 4472 2869 3847 2869 
Q 3550 2869 3303 2594 
Q 3128 2397 3059 2103 
L 3059 63 
L 2509 63 
L 2509 2066 
Q 2509 2869 1919 2869 
Q 1606 2869 1369 2594 
Q 1113 2306 1113 2041 
L 1113 63 
L 563 63 
L 563 3250 
L 1075 3250 
L 1075 2700 
Q 1391 3316 2028 3316 
Q 2725 3316 2956 2647 
Q 3303 3316 3953 3316 
Q 4478 3316 4772 2944 
Q 5022 2638 5022 2072 
L 5022 63 
z
" transform="scale(0.015625)"/>
      </defs>
      <use xlink:href="#IPAexGothic-53d7"/>
      <use xlink:href="#IPAexGothic-4fe1" x="100"/>
      <use xlink:href="#IPAexGothic-96fb" x="200"/>
      <use xlink:href="#IPAexGothic-529b" x="300"/>
      <use xlink:href="#IPAexGothic-30ec" x="400"/>
      <use xlink:href="#IPAexGothic-30d9" x="500"/>
      <use xlink:href="#IPAexGothic-30eb" x="600"/>
      <use xlink:href="#IPAexGothic-5b" x="700"/>
      <use xlink:href="#IPAexGothic-64" x="729.980469"/>
      <use xlink:href="#IPAexGothic-42" x="792.382812"/>
      <use xlink:href="#IPAexGothic-6d" x="858.300781"/>
      <use xlink:href="#IPAexGothic-5d" x="945.410156"/>
     </g>
    </g>
   </g>
   <g id="line2d_15">
    <path d="M 67.626847 104.801219 
L 75.90885 152.703361 
L 84.190854 168.202537 
L 92.472858 192.42 
L 100.754861 167.669753 
L 109.036865 177.841087 
L 117.318869 153.865799 
L 125.600873 155.803196 
L 133.882876 174.402208 
L 142.16488 166.36201 
L 150.446884 145.874036 
L 158.728887 152.025272 
L 167.010891 130.66547 
L 175.292895 122.431532 
L 183.574899 115.214728 
L 191.856902 127.081285 
L 200.138906 148.877002 
L 208.42091 81.11654 
L 216.702913 127.275025 
L 224.984917 97.681285 
L 233.266921 128.776507 
L 241.548925 132.893476 
L 249.830928 158.515552 
L 258.112932 137.930708 
L 266.394936 135.848007 
L 274.676939 101.991993 
L 282.958943 62.614399 
L 291.240947 57.964646 
L 299.52295 31.422306 
L 307.804954 37.137628 
L 316.086958 42.513904 
L 324.368962 20.040099 
L 332.650965 47.890181 
L 340.932969 47.744876 
L 349.214973 16.02 
L 357.496976 39.607809 
L 365.77898 30.356738 
L 374.060984 24.738287 
L 382.342988 43.191993 
L 390.624991 33.456573 
L 398.906995 26.869423 
L 407.188999 39.801549 
L 415.471002 31.519176 
L 423.753006 31.131697 
L 432.03501 89.641087 
L 440.317014 66.779802 
L 448.599017 72.059209 
L 456.881021 59.902043 
L 465.163025 55.397595 
L 473.445028 39.268764 
" clip-path="url(#pff033d7072)" style="fill: none; stroke: #000000; stroke-opacity: 0.5; stroke-linecap: square"/>
    <defs>
     <path id="m4b39dd73ff" d="M 0 1.5 
C 0.397805 1.5 0.77937 1.341951 1.06066 1.06066 
C 1.341951 0.77937 1.5 0.397805 1.5 0 
C 1.5 -0.397805 1.341951 -0.77937 1.06066 -1.06066 
C 0.77937 -1.341951 0.397805 -1.5 0 -1.5 
C -0.397805 -1.5 -0.77937 -1.341951 -1.06066 -1.06066 
C -1.341951 -0.77937 -1.5 -0.397805 -1.5 0 
C -1.5 0.397805 -1.341951 0.77937 -1.06066 1.06066 
C -0.77937 1.341951 -0.397805 1.5 0 1.5 
z
" style="stroke: #000000; stroke-opacity: 0.5"/>
    </defs>
    <g clip-path="url(#pff033d7072)">
     <use xlink:href="#m4b39dd73ff" x="67.626847" y="104.801219" style="fill-opacity: 0.5; stroke: #000000; stroke-opacity: 0.5"/>
     <use xlink:href="#m4b39dd73ff" x="75.90885" y="152.703361" style="fill-opacity: 0.5; stroke: #000000; stroke-opacity: 0.5"/>
     <use xlink:href="#m4b39dd73ff" x="84.190854" y="168.202537" style="fill-opacity: 0.5; stroke: #000000; stroke-opacity: 0.5"/>
     <use xlink:href="#m4b39dd73ff" x="92.472858" y="192.42" style="fill-opacity: 0.5; stroke: #000000; stroke-opacity: 0.5"/>
     <use xlink:href="#m4b39dd73ff" x="100.754861" y="167.669753" style="fill-opacity: 0.5; stroke: #000000; stroke-opacity: 0.5"/>
     <use xlink:href="#m4b39dd73ff" x="109.036865" y="177.841087" style="fill-opacity: 0.5; stroke: #000000; stroke-opacity: 0.5"/>
     <use xlink:href="#m4b39dd73ff" x="117.318869" y="153.865799" style="fill-opacity: 0.5; stroke: #000000; stroke-opacity: 0.5"/>
     <use xlink:href="#m4b39dd73ff" x="125.600873" y="155.803196" style="fill-opacity: 0.5; stroke: #000000; stroke-opacity: 0.5"/>
     <use xlink:href="#m4b39dd73ff" x="133.882876" y="174.402208" style="fill-opacity: 0.5; stroke: #000000; stroke-opacity: 0.5"/>
     <use xlink:href="#m4b39dd73ff" x="142.16488" y="166.36201" style="fill-opacity: 0.5; stroke: #000000; stroke-opacity: 0.5"/>
     <use xlink:href="#m4b39dd73ff" x="150.446884" y="145.874036" style="fill-opacity: 0.5; stroke: #000000; stroke-opacity: 0.5"/>
     <use xlink:href="#m4b39dd73ff" x="158.728887" y="152.025272" style="fill-opacity: 0.5; stroke: #000000; stroke-opacity: 0.5"/>
     <use xlink:href="#m4b39dd73ff" x="167.010891" y="130.66547" style="fill-opacity: 0.5; stroke: #000000; stroke-opacity: 0.5"/>
     <use xlink:href="#m4b39dd73ff" x="175.292895" y="122.431532" style="fill-opacity: 0.5; stroke: #000000; stroke-opacity: 0.5"/>
     <use xlink:href="#m4b39dd73ff" x="183.574899" y="115.214728" style="fill-opacity: 0.5; stroke: #000000; stroke-opacity: 0.5"/>
     <use xlink:href="#m4b39dd73ff" x="191.856902" y="127.081285" style="fill-opacity: 0.5; stroke: #000000; stroke-opacity: 0.5"/>
     <use xlink:href="#m4b39dd73ff" x="200.138906" y="148.877002" style="fill-opacity: 0.5; stroke: #000000; stroke-opacity: 0.5"/>
     <use xlink:href="#m4b39dd73ff" x="208.42091" y="81.11654" style="fill-opacity: 0.5; stroke: #000000; stroke-opacity: 0.5"/>
     <use xlink:href="#m4b39dd73ff" x="216.702913" y="127.275025" style="fill-opacity: 0.5; stroke: #000000; stroke-opacity: 0.5"/>
     <use xlink:href="#m4b39dd73ff" x="224.984917" y="97.681285" style="fill-opacity: 0.5; stroke: #000000; stroke-opacity: 0.5"/>
     <use xlink:href="#m4b39dd73ff" x="233.266921" y="128.776507" style="fill-opacity: 0.5; stroke: #000000; stroke-opacity: 0.5"/>
     <use xlink:href="#m4b39dd73ff" x="241.548925" y="132.893476" style="fill-opacity: 0.5; stroke: #000000; stroke-opacity: 0.5"/>
     <use xlink:href="#m4b39dd73ff" x="249.830928" y="158.515552" style="fill-opacity: 0.5; stroke: #000000; stroke-opacity: 0.5"/>
     <use xlink:href="#m4b39dd73ff" x="258.112932" y="137.930708" style="fill-opacity: 0.5; stroke: #000000; stroke-opacity: 0.5"/>
     <use xlink:href="#m4b39dd73ff" x="266.394936" y="135.848007" style="fill-opacity: 0.5; stroke: #000000; stroke-opacity: 0.5"/>
     <use xlink:href="#m4b39dd73ff" x="274.676939" y="101.991993" style="fill-opacity: 0.5; stroke: #000000; stroke-opacity: 0.5"/>
     <use xlink:href="#m4b39dd73ff" x="282.958943" y="62.614399" style="fill-opacity: 0.5; stroke: #000000; stroke-opacity: 0.5"/>
     <use xlink:href="#m4b39dd73ff" x="291.240947" y="57.964646" style="fill-opacity: 0.5; stroke: #000000; stroke-opacity: 0.5"/>
     <use xlink:href="#m4b39dd73ff" x="299.52295" y="31.422306" style="fill-opacity: 0.5; stroke: #000000; stroke-opacity: 0.5"/>
     <use xlink:href="#m4b39dd73ff" x="307.804954" y="37.137628" style="fill-opacity: 0.5; stroke: #000000; stroke-opacity: 0.5"/>
     <use xlink:href="#m4b39dd73ff" x="316.086958" y="42.513904" style="fill-opacity: 0.5; stroke: #000000; stroke-opacity: 0.5"/>
     <use xlink:href="#m4b39dd73ff" x="324.368962" y="20.040099" style="fill-opacity: 0.5; stroke: #000000; stroke-opacity: 0.5"/>
     <use xlink:href="#m4b39dd73ff" x="332.650965" y="47.890181" style="fill-opacity: 0.5; stroke: #000000; stroke-opacity: 0.5"/>
     <use xlink:href="#m4b39dd73ff" x="340.932969" y="47.744876" style="fill-opacity: 0.5; stroke: #000000; stroke-opacity: 0.5"/>
     <use xlink:href="#m4b39dd73ff" x="349.214973" y="16.02" style="fill-opacity: 0.5; stroke: #000000; stroke-opacity: 0.5"/>
     <use xlink:href="#m4b39dd73ff" x="357.496976" y="39.607809" style="fill-opacity: 0.5; stroke: #000000; stroke-opacity: 0.5"/>
     <use xlink:href="#m4b39dd73ff" x="365.77898" y="30.356738" style="fill-opacity: 0.5; stroke: #000000; stroke-opacity: 0.5"/>
     <use xlink:href="#m4b39dd73ff" x="374.060984" y="24.738287" style="fill-opacity: 0.5; stroke: #000000; stroke-opacity: 0.5"/>
     <use xlink:href="#m4b39dd73ff" x="382.342988" y="43.191993" style="fill-opacity: 0.5; stroke: #000000; stroke-opacity: 0.5"/>
     <use xlink:href="#m4b39dd73ff" x="390.624991" y="33.456573" style="fill-opacity: 0.5; stroke: #000000; stroke-opacity: 0.5"/>
     <use xlink:href="#m4b39dd73ff" x="398.906995" y="26.869423" style="fill-opacity: 0.5; stroke: #000000; stroke-opacity: 0.5"/>
     <use xlink:href="#m4b39dd73ff" x="407.188999" y="39.801549" style="fill-opacity: 0.5; stroke: #000000; stroke-opacity: 0.5"/>
     <use xlink:href="#m4b39dd73ff" x="415.471002" y="31.519176" style="fill-opacity: 0.5; stroke: #000000; stroke-opacity: 0.5"/>
     <use xlink:href="#m4b39dd73ff" x="423.753006" y="31.131697" style="fill-opacity: 0.5; stroke: #000000; stroke-opacity: 0.5"/>
     <use xlink:href="#m4b39dd73ff" x="432.03501" y="89.641087" style="fill-opacity: 0.5; stroke: #000000; stroke-opacity: 0.5"/>
     <use xlink:href="#m4b39dd73ff" x="440.317014" y="66.779802" style="fill-opacity: 0.5; stroke: #000000; stroke-opacity: 0.5"/>
     <use xlink:href="#m4b39dd73ff" x="448.599017" y="72.059209" style="fill-opacity: 0.5; stroke: #000000; stroke-opacity: 0.5"/>
     <use xlink:href="#m4b39dd73ff" x="456.881021" y="59.902043" style="fill-opacity: 0.5; stroke: #000000; stroke-opacity: 0.5"/>
     <use xlink:href="#m4b39dd73ff" x="465.163025" y="55.397595" style="fill-opacity: 0.5; stroke: #000000; stroke-opacity: 0.5"/>
     <use xlink:href="#m4b39dd73ff" x="473.445028" y="39.268764" style="fill-opacity: 0.5; stroke: #000000; stroke-opacity: 0.5"/>
    </g>
   </g>
   <g id="line2d_16">
    <path d="M 67.626847 126.688602 
L 75.90885 137.423516 
L 84.190854 123.485523 
L 92.472858 135.576702 
L 100.754861 128.73875 
L 109.036865 116.149168 
L 117.318869 132.08964 
L 125.600873 132.539265 
L 133.882876 140.25956 
L 142.16488 134.909055 
L 150.446884 150.686472 
L 158.728887 145.446733 
L 167.010891 150.393435 
L 175.292895 149.584721 
L 183.574899 142.482278 
L 191.856902 139.490016 
L 200.138906 147.585753 
L 208.42091 139.681709 
L 216.702913 135.974592 
L 224.984917 129.617767 
L 233.266921 135.062502 
L 241.548925 137.203739 
L 249.830928 72.808849 
L 258.112932 124.467177 
L 266.394936 108.280784 
L 274.676939 127.638199 
L 282.958943 125.12069 
L 291.240947 126.329881 
L 299.52295 121.546327 
L 307.804954 128.191385 
L 316.086958 112.376276 
L 324.368962 79.390625 
L 332.650965 88.889187 
L 340.932969 68.283779 
L 349.214973 78.389755 
L 357.496976 77.54187 
L 365.77898 52.991 
L 374.060984 78.346797 
L 382.342988 68.152874 
L 390.624991 32.452154 
L 398.906995 56.079247 
L 407.188999 50.831287 
L 415.471002 41.423351 
L 423.753006 53.568389 
L 432.03501 49.642881 
L 440.317014 34.907998 
L 448.599017 54.243611 
L 456.881021 51.360268 
L 465.163025 40.824714 
L 473.445028 67.994623 
" clip-path="url(#pff033d7072)" style="fill: none; stroke: #2ca02c; stroke-opacity: 0.9; stroke-linecap: square"/>
    <defs>
     <path id="mece87d79ae" d="M 0 1.5 
C 0.397805 1.5 0.77937 1.341951 1.06066 1.06066 
C 1.341951 0.77937 1.5 0.397805 1.5 0 
C 1.5 -0.397805 1.341951 -0.77937 1.06066 -1.06066 
C 0.77937 -1.341951 0.397805 -1.5 0 -1.5 
C -0.397805 -1.5 -0.77937 -1.341951 -1.06066 -1.06066 
C -1.341951 -0.77937 -1.5 -0.397805 -1.5 0 
C -1.5 0.397805 -1.341951 0.77937 -1.06066 1.06066 
C -0.77937 1.341951 -0.397805 1.5 0 1.5 
z
" style="stroke: #008000; stroke-opacity: 0.9"/>
    </defs>
    <g clip-path="url(#pff033d7072)">
     <use xlink:href="#mece87d79ae" x="67.626847" y="126.688602" style="fill: #008000; fill-opacity: 0.9; stroke: #008000; stroke-opacity: 0.9"/>
     <use xlink:href="#mece87d79ae" x="75.90885" y="137.423516" style="fill: #008000; fill-opacity: 0.9; stroke: #008000; stroke-opacity: 0.9"/>
     <use xlink:href="#mece87d79ae" x="84.190854" y="123.485523" style="fill: #008000; fill-opacity: 0.9; stroke: #008000; stroke-opacity: 0.9"/>
     <use xlink:href="#mece87d79ae" x="92.472858" y="135.576702" style="fill: #008000; fill-opacity: 0.9; stroke: #008000; stroke-opacity: 0.9"/>
     <use xlink:href="#mece87d79ae" x="100.754861" y="128.73875" style="fill: #008000; fill-opacity: 0.9; stroke: #008000; stroke-opacity: 0.9"/>
     <use xlink:href="#mece87d79ae" x="109.036865" y="116.149168" style="fill: #008000; fill-opacity: 0.9; stroke: #008000; stroke-opacity: 0.9"/>
     <use xlink:href="#mece87d79ae" x="117.318869" y="132.08964" style="fill: #008000; fill-opacity: 0.9; stroke: #008000; stroke-opacity: 0.9"/>
     <use xlink:href="#mece87d79ae" x="125.600873" y="132.539265" style="fill: #008000; fill-opacity: 0.9; stroke: #008000; stroke-opacity: 0.9"/>
     <use xlink:href="#mece87d79ae" x="133.882876" y="140.25956" style="fill: #008000; fill-opacity: 0.9; stroke: #008000; stroke-opacity: 0.9"/>
     <use xlink:href="#mece87d79ae" x="142.16488" y="134.909055" style="fill: #008000; fill-opacity: 0.9; stroke: #008000; stroke-opacity: 0.9"/>
     <use xlink:href="#mece87d79ae" x="150.446884" y="150.686472" style="fill: #008000; fill-opacity: 0.9; stroke: #008000; stroke-opacity: 0.9"/>
     <use xlink:href="#mece87d79ae" x="158.728887" y="145.446733" style="fill: #008000; fill-opacity: 0.9; stroke: #008000; stroke-opacity: 0.9"/>
     <use xlink:href="#mece87d79ae" x="167.010891" y="150.393435" style="fill: #008000; fill-opacity: 0.9; stroke: #008000; stroke-opacity: 0.9"/>
     <use xlink:href="#mece87d79ae" x="175.292895" y="149.584721" style="fill: #008000; fill-opacity: 0.9; stroke: #008000; stroke-opacity: 0.9"/>
     <use xlink:href="#mece87d79ae" x="183.574899" y="142.482278" style="fill: #008000; fill-opacity: 0.9; stroke: #008000; stroke-opacity: 0.9"/>
     <use xlink:href="#mece87d79ae" x="191.856902" y="139.490016" style="fill: #008000; fill-opacity: 0.9; stroke: #008000; stroke-opacity: 0.9"/>
     <use xlink:href="#mece87d79ae" x="200.138906" y="147.585753" style="fill: #008000; fill-opacity: 0.9; stroke: #008000; stroke-opacity: 0.9"/>
     <use xlink:href="#mece87d79ae" x="208.42091" y="139.681709" style="fill: #008000; fill-opacity: 0.9; stroke: #008000; stroke-opacity: 0.9"/>
     <use xlink:href="#mece87d79ae" x="216.702913" y="135.974592" style="fill: #008000; fill-opacity: 0.9; stroke: #008000; stroke-opacity: 0.9"/>
     <use xlink:href="#mece87d79ae" x="224.984917" y="129.617767" style="fill: #008000; fill-opacity: 0.9; stroke: #008000; stroke-opacity: 0.9"/>
     <use xlink:href="#mece87d79ae" x="233.266921" y="135.062502" style="fill: #008000; fill-opacity: 0.9; stroke: #008000; stroke-opacity: 0.9"/>
     <use xlink:href="#mece87d79ae" x="241.548925" y="137.203739" style="fill: #008000; fill-opacity: 0.9; stroke: #008000; stroke-opacity: 0.9"/>
     <use xlink:href="#mece87d79ae" x="249.830928" y="72.808849" style="fill: #008000; fill-opacity: 0.9; stroke: #008000; stroke-opacity: 0.9"/>
     <use xlink:href="#mece87d79ae" x="258.112932" y="124.467177" style="fill: #008000; fill-opacity: 0.9; stroke: #008000; stroke-opacity: 0.9"/>
     <use xlink:href="#mece87d79ae" x="266.394936" y="108.280784" style="fill: #008000; fill-opacity: 0.9; stroke: #008000; stroke-opacity: 0.9"/>
     <use xlink:href="#mece87d79ae" x="274.676939" y="127.638199" style="fill: #008000; fill-opacity: 0.9; stroke: #008000; stroke-opacity: 0.9"/>
     <use xlink:href="#mece87d79ae" x="282.958943" y="125.12069" style="fill: #008000; fill-opacity: 0.9; stroke: #008000; stroke-opacity: 0.9"/>
     <use xlink:href="#mece87d79ae" x="291.240947" y="126.329881" style="fill: #008000; fill-opacity: 0.9; stroke: #008000; stroke-opacity: 0.9"/>
     <use xlink:href="#mece87d79ae" x="299.52295" y="121.546327" style="fill: #008000; fill-opacity: 0.9; stroke: #008000; stroke-opacity: 0.9"/>
     <use xlink:href="#mece87d79ae" x="307.804954" y="128.191385" style="fill: #008000; fill-opacity: 0.9; stroke: #008000; stroke-opacity: 0.9"/>
     <use xlink:href="#mece87d79ae" x="316.086958" y="112.376276" style="fill: #008000; fill-opacity: 0.9; stroke: #008000; stroke-opacity: 0.9"/>
     <use xlink:href="#mece87d79ae" x="324.368962" y="79.390625" style="fill: #008000; fill-opacity: 0.9; stroke: #008000; stroke-opacity: 0.9"/>
     <use xlink:href="#mece87d79ae" x="332.650965" y="88.889187" style="fill: #008000; fill-opacity: 0.9; stroke: #008000; stroke-opacity: 0.9"/>
     <use xlink:href="#mece87d79ae" x="340.932969" y="68.283779" style="fill: #008000; fill-opacity: 0.9; stroke: #008000; stroke-opacity: 0.9"/>
     <use xlink:href="#mece87d79ae" x="349.214973" y="78.389755" style="fill: #008000; fill-opacity: 0.9; stroke: #008000; stroke-opacity: 0.9"/>
     <use xlink:href="#mece87d79ae" x="357.496976" y="77.54187" style="fill: #008000; fill-opacity: 0.9; stroke: #008000; stroke-opacity: 0.9"/>
     <use xlink:href="#mece87d79ae" x="365.77898" y="52.991" style="fill: #008000; fill-opacity: 0.9; stroke: #008000; stroke-opacity: 0.9"/>
     <use xlink:href="#mece87d79ae" x="374.060984" y="78.346797" style="fill: #008000; fill-opacity: 0.9; stroke: #008000; stroke-opacity: 0.9"/>
     <use xlink:href="#mece87d79ae" x="382.342988" y="68.152874" style="fill: #008000; fill-opacity: 0.9; stroke: #008000; stroke-opacity: 0.9"/>
     <use xlink:href="#mece87d79ae" x="390.624991" y="32.452154" style="fill: #008000; fill-opacity: 0.9; stroke: #008000; stroke-opacity: 0.9"/>
     <use xlink:href="#mece87d79ae" x="398.906995" y="56.079247" style="fill: #008000; fill-opacity: 0.9; stroke: #008000; stroke-opacity: 0.9"/>
     <use xlink:href="#mece87d79ae" x="407.188999" y="50.831287" style="fill: #008000; fill-opacity: 0.9; stroke: #008000; stroke-opacity: 0.9"/>
     <use xlink:href="#mece87d79ae" x="415.471002" y="41.423351" style="fill: #008000; fill-opacity: 0.9; stroke: #008000; stroke-opacity: 0.9"/>
     <use xlink:href="#mece87d79ae" x="423.753006" y="53.568389" style="fill: #008000; fill-opacity: 0.9; stroke: #008000; stroke-opacity: 0.9"/>
     <use xlink:href="#mece87d79ae" x="432.03501" y="49.642881" style="fill: #008000; fill-opacity: 0.9; stroke: #008000; stroke-opacity: 0.9"/>
     <use xlink:href="#mece87d79ae" x="440.317014" y="34.907998" style="fill: #008000; fill-opacity: 0.9; stroke: #008000; stroke-opacity: 0.9"/>
     <use xlink:href="#mece87d79ae" x="448.599017" y="54.243611" style="fill: #008000; fill-opacity: 0.9; stroke: #008000; stroke-opacity: 0.9"/>
     <use xlink:href="#mece87d79ae" x="456.881021" y="51.360268" style="fill: #008000; fill-opacity: 0.9; stroke: #008000; stroke-opacity: 0.9"/>
     <use xlink:href="#mece87d79ae" x="465.163025" y="40.824714" style="fill: #008000; fill-opacity: 0.9; stroke: #008000; stroke-opacity: 0.9"/>
     <use xlink:href="#mece87d79ae" x="473.445028" y="67.994623" style="fill: #008000; fill-opacity: 0.9; stroke: #008000; stroke-opacity: 0.9"/>
    </g>
   </g>
   <g id="line2d_17">
    <path d="M 67.626847 125.412156 
L 75.90885 137.362452 
L 84.190854 125.040594 
L 92.472858 133.972668 
L 100.754861 127.915716 
L 109.036865 115.810125 
L 117.318869 142.67277 
L 125.600873 137.527169 
L 133.882876 147.73689 
L 142.16488 140.325521 
L 150.446884 151.735473 
L 158.728887 139.460731 
L 167.010891 145.611451 
L 175.292895 150.652291 
L 183.574899 146.310231 
L 191.856902 135.858283 
L 200.138906 144.19948 
L 208.42091 132.684674 
L 216.702913 130.134461 
L 224.984917 127.517086 
L 233.266921 133.50078 
L 241.548925 138.31713 
L 249.830928 101.260284 
L 258.112932 137.581767 
L 266.394936 115.946389 
L 274.676939 131.685006 
L 282.958943 124.996343 
L 291.240947 135.71001 
L 299.52295 122.593665 
L 307.804954 127.44743 
L 316.086958 112.422836 
L 324.368962 88.122968 
L 332.650965 88.46543 
L 340.932969 71.929924 
L 349.214973 74.904356 
L 357.496976 81.638656 
L 365.77898 60.232848 
L 374.060984 80.197677 
L 382.342988 76.293971 
L 390.624991 45.681528 
L 398.906995 66.836149 
L 407.188999 60.157833 
L 415.471002 52.746372 
L 423.753006 68.792621 
L 432.03501 61.264758 
L 440.317014 54.180791 
L 448.599017 65.624001 
L 456.881021 59.434018 
L 465.163025 57.77049 
L 473.445028 85.309004 
" clip-path="url(#pff033d7072)" style="fill: none; stroke: #d62728; stroke-opacity: 0.9; stroke-linecap: square"/>
    <defs>
     <path id="m24494ed348" d="M 0 1.5 
C 0.397805 1.5 0.77937 1.341951 1.06066 1.06066 
C 1.341951 0.77937 1.5 0.397805 1.5 0 
C 1.5 -0.397805 1.341951 -0.77937 1.06066 -1.06066 
C 0.77937 -1.341951 0.397805 -1.5 0 -1.5 
C -0.397805 -1.5 -0.77937 -1.341951 -1.06066 -1.06066 
C -1.341951 -0.77937 -1.5 -0.397805 -1.5 0 
C -1.5 0.397805 -1.341951 0.77937 -1.06066 1.06066 
C -0.77937 1.341951 -0.397805 1.5 0 1.5 
z
" style="stroke: #ff0000; stroke-opacity: 0.9"/>
    </defs>
    <g clip-path="url(#pff033d7072)">
     <use xlink:href="#m24494ed348" x="67.626847" y="125.412156" style="fill: #ff0000; fill-opacity: 0.9; stroke: #ff0000; stroke-opacity: 0.9"/>
     <use xlink:href="#m24494ed348" x="75.90885" y="137.362452" style="fill: #ff0000; fill-opacity: 0.9; stroke: #ff0000; stroke-opacity: 0.9"/>
     <use xlink:href="#m24494ed348" x="84.190854" y="125.040594" style="fill: #ff0000; fill-opacity: 0.9; stroke: #ff0000; stroke-opacity: 0.9"/>
     <use xlink:href="#m24494ed348" x="92.472858" y="133.972668" style="fill: #ff0000; fill-opacity: 0.9; stroke: #ff0000; stroke-opacity: 0.9"/>
     <use xlink:href="#m24494ed348" x="100.754861" y="127.915716" style="fill: #ff0000; fill-opacity: 0.9; stroke: #ff0000; stroke-opacity: 0.9"/>
     <use xlink:href="#m24494ed348" x="109.036865" y="115.810125" style="fill: #ff0000; fill-opacity: 0.9; stroke: #ff0000; stroke-opacity: 0.9"/>
     <use xlink:href="#m24494ed348" x="117.318869" y="142.67277" style="fill: #ff0000; fill-opacity: 0.9; stroke: #ff0000; stroke-opacity: 0.9"/>
     <use xlink:href="#m24494ed348" x="125.600873" y="137.527169" style="fill: #ff0000; fill-opacity: 0.9; stroke: #ff0000; stroke-opacity: 0.9"/>
     <use xlink:href="#m24494ed348" x="133.882876" y="147.73689" style="fill: #ff0000; fill-opacity: 0.9; stroke: #ff0000; stroke-opacity: 0.9"/>
     <use xlink:href="#m24494ed348" x="142.16488" y="140.325521" style="fill: #ff0000; fill-opacity: 0.9; stroke: #ff0000; stroke-opacity: 0.9"/>
     <use xlink:href="#m24494ed348" x="150.446884" y="151.735473" style="fill: #ff0000; fill-opacity: 0.9; stroke: #ff0000; stroke-opacity: 0.9"/>
     <use xlink:href="#m24494ed348" x="158.728887" y="139.460731" style="fill: #ff0000; fill-opacity: 0.9; stroke: #ff0000; stroke-opacity: 0.9"/>
     <use xlink:href="#m24494ed348" x="167.010891" y="145.611451" style="fill: #ff0000; fill-opacity: 0.9; stroke: #ff0000; stroke-opacity: 0.9"/>
     <use xlink:href="#m24494ed348" x="175.292895" y="150.652291" style="fill: #ff0000; fill-opacity: 0.9; stroke: #ff0000; stroke-opacity: 0.9"/>
     <use xlink:href="#m24494ed348" x="183.574899" y="146.310231" style="fill: #ff0000; fill-opacity: 0.9; stroke: #ff0000; stroke-opacity: 0.9"/>
     <use xlink:href="#m24494ed348" x="191.856902" y="135.858283" style="fill: #ff0000; fill-opacity: 0.9; stroke: #ff0000; stroke-opacity: 0.9"/>
     <use xlink:href="#m24494ed348" x="200.138906" y="144.19948" style="fill: #ff0000; fill-opacity: 0.9; stroke: #ff0000; stroke-opacity: 0.9"/>
     <use xlink:href="#m24494ed348" x="208.42091" y="132.684674" style="fill: #ff0000; fill-opacity: 0.9; stroke: #ff0000; stroke-opacity: 0.9"/>
     <use xlink:href="#m24494ed348" x="216.702913" y="130.134461" style="fill: #ff0000; fill-opacity: 0.9; stroke: #ff0000; stroke-opacity: 0.9"/>
     <use xlink:href="#m24494ed348" x="224.984917" y="127.517086" style="fill: #ff0000; fill-opacity: 0.9; stroke: #ff0000; stroke-opacity: 0.9"/>
     <use xlink:href="#m24494ed348" x="233.266921" y="133.50078" style="fill: #ff0000; fill-opacity: 0.9; stroke: #ff0000; stroke-opacity: 0.9"/>
     <use xlink:href="#m24494ed348" x="241.548925" y="138.31713" style="fill: #ff0000; fill-opacity: 0.9; stroke: #ff0000; stroke-opacity: 0.9"/>
     <use xlink:href="#m24494ed348" x="249.830928" y="101.260284" style="fill: #ff0000; fill-opacity: 0.9; stroke: #ff0000; stroke-opacity: 0.9"/>
     <use xlink:href="#m24494ed348" x="258.112932" y="137.581767" style="fill: #ff0000; fill-opacity: 0.9; stroke: #ff0000; stroke-opacity: 0.9"/>
     <use xlink:href="#m24494ed348" x="266.394936" y="115.946389" style="fill: #ff0000; fill-opacity: 0.9; stroke: #ff0000; stroke-opacity: 0.9"/>
     <use xlink:href="#m24494ed348" x="274.676939" y="131.685006" style="fill: #ff0000; fill-opacity: 0.9; stroke: #ff0000; stroke-opacity: 0.9"/>
     <use xlink:href="#m24494ed348" x="282.958943" y="124.996343" style="fill: #ff0000; fill-opacity: 0.9; stroke: #ff0000; stroke-opacity: 0.9"/>
     <use xlink:href="#m24494ed348" x="291.240947" y="135.71001" style="fill: #ff0000; fill-opacity: 0.9; stroke: #ff0000; stroke-opacity: 0.9"/>
     <use xlink:href="#m24494ed348" x="299.52295" y="122.593665" style="fill: #ff0000; fill-opacity: 0.9; stroke: #ff0000; stroke-opacity: 0.9"/>
     <use xlink:href="#m24494ed348" x="307.804954" y="127.44743" style="fill: #ff0000; fill-opacity: 0.9; stroke: #ff0000; stroke-opacity: 0.9"/>
     <use xlink:href="#m24494ed348" x="316.086958" y="112.422836" style="fill: #ff0000; fill-opacity: 0.9; stroke: #ff0000; stroke-opacity: 0.9"/>
     <use xlink:href="#m24494ed348" x="324.368962" y="88.122968" style="fill: #ff0000; fill-opacity: 0.9; stroke: #ff0000; stroke-opacity: 0.9"/>
     <use xlink:href="#m24494ed348" x="332.650965" y="88.46543" style="fill: #ff0000; fill-opacity: 0.9; stroke: #ff0000; stroke-opacity: 0.9"/>
     <use xlink:href="#m24494ed348" x="340.932969" y="71.929924" style="fill: #ff0000; fill-opacity: 0.9; stroke: #ff0000; stroke-opacity: 0.9"/>
     <use xlink:href="#m24494ed348" x="349.214973" y="74.904356" style="fill: #ff0000; fill-opacity: 0.9; stroke: #ff0000; stroke-opacity: 0.9"/>
     <use xlink:href="#m24494ed348" x="357.496976" y="81.638656" style="fill: #ff0000; fill-opacity: 0.9; stroke: #ff0000; stroke-opacity: 0.9"/>
     <use xlink:href="#m24494ed348" x="365.77898" y="60.232848" style="fill: #ff0000; fill-opacity: 0.9; stroke: #ff0000; stroke-opacity: 0.9"/>
     <use xlink:href="#m24494ed348" x="374.060984" y="80.197677" style="fill: #ff0000; fill-opacity: 0.9; stroke: #ff0000; stroke-opacity: 0.9"/>
     <use xlink:href="#m24494ed348" x="382.342988" y="76.293971" style="fill: #ff0000; fill-opacity: 0.9; stroke: #ff0000; stroke-opacity: 0.9"/>
     <use xlink:href="#m24494ed348" x="390.624991" y="45.681528" style="fill: #ff0000; fill-opacity: 0.9; stroke: #ff0000; stroke-opacity: 0.9"/>
     <use xlink:href="#m24494ed348" x="398.906995" y="66.836149" style="fill: #ff0000; fill-opacity: 0.9; stroke: #ff0000; stroke-opacity: 0.9"/>
     <use xlink:href="#m24494ed348" x="407.188999" y="60.157833" style="fill: #ff0000; fill-opacity: 0.9; stroke: #ff0000; stroke-opacity: 0.9"/>
     <use xlink:href="#m24494ed348" x="415.471002" y="52.746372" style="fill: #ff0000; fill-opacity: 0.9; stroke: #ff0000; stroke-opacity: 0.9"/>
     <use xlink:href="#m24494ed348" x="423.753006" y="68.792621" style="fill: #ff0000; fill-opacity: 0.9; stroke: #ff0000; stroke-opacity: 0.9"/>
     <use xlink:href="#m24494ed348" x="432.03501" y="61.264758" style="fill: #ff0000; fill-opacity: 0.9; stroke: #ff0000; stroke-opacity: 0.9"/>
     <use xlink:href="#m24494ed348" x="440.317014" y="54.180791" style="fill: #ff0000; fill-opacity: 0.9; stroke: #ff0000; stroke-opacity: 0.9"/>
     <use xlink:href="#m24494ed348" x="448.599017" y="65.624001" style="fill: #ff0000; fill-opacity: 0.9; stroke: #ff0000; stroke-opacity: 0.9"/>
     <use xlink:href="#m24494ed348" x="456.881021" y="59.434018" style="fill: #ff0000; fill-opacity: 0.9; stroke: #ff0000; stroke-opacity: 0.9"/>
     <use xlink:href="#m24494ed348" x="465.163025" y="57.77049" style="fill: #ff0000; fill-opacity: 0.9; stroke: #ff0000; stroke-opacity: 0.9"/>
     <use xlink:href="#m24494ed348" x="473.445028" y="85.309004" style="fill: #ff0000; fill-opacity: 0.9; stroke: #ff0000; stroke-opacity: 0.9"/>
    </g>
   </g>
   <g id="patch_3">
    <path d="M 47.335938 201.24 
L 47.335938 7.2 
" style="fill: none; stroke: #000000; stroke-width: 0.8; stroke-linejoin: miter; stroke-linecap: square"/>
   </g>
   <g id="patch_4">
    <path d="M 493.735937 201.24 
L 493.735937 7.2 
" style="fill: none; stroke: #000000; stroke-width: 0.8; stroke-linejoin: miter; stroke-linecap: square"/>
   </g>
   <g id="patch_5">
    <path d="M 47.335938 201.24 
L 493.735938 201.24 
" style="fill: none; stroke: #000000; stroke-width: 0.8; stroke-linejoin: miter; stroke-linecap: square"/>
   </g>
   <g id="patch_6">
    <path d="M 47.335938 7.2 
L 493.735938 7.2 
" style="fill: none; stroke: #000000; stroke-width: 0.8; stroke-linejoin: miter; stroke-linecap: square"/>
   </g>
   <g id="legend_1">
    <g id="patch_7">
     <path d="M 54.335938 59.875 
L 169.171875 59.875 
Q 171.171875 59.875 171.171875 57.875 
L 171.171875 14.2 
Q 171.171875 12.2 169.171875 12.2 
L 54.335938 12.2 
Q 52.335938 12.2 52.335938 14.2 
L 52.335938 57.875 
Q 52.335938 59.875 54.335938 59.875 
z
" style="fill: #ffffff; opacity: 0.8; stroke: #cccccc; stroke-linejoin: miter"/>
    </g>
    <g id="line2d_18">
     <path d="M 56.335938 20.190625 
L 66.335938 20.190625 
L 76.335938 20.190625 
" style="fill: none; stroke: #000000; stroke-opacity: 0.5; stroke-linecap: square"/>
     <g>
      <use xlink:href="#m4b39dd73ff" x="66.335938" y="20.190625" style="fill-opacity: 0.5; stroke: #000000; stroke-opacity: 0.5"/>
     </g>
    </g>
    <g id="text_17">
     <!-- 実測値 -->
     <g transform="translate(84.335938 23.690625) scale(0.1 -0.1)">
      <defs>
       <path id="IPAexGothic-5b9f" d="M 3525 1275 
Q 4288 350 6022 91 
L 5738 -375 
Q 3953 -41 3219 1050 
Q 2731 -144 728 -472 
L 466 -44 
Q 2422 150 2872 1275 
L 384 1275 
L 384 1659 
L 2950 1659 
L 2950 2144 
L 966 2144 
L 966 2509 
L 2950 2509 
L 2950 2969 
L 1266 2969 
L 1266 3341 
L 2950 3341 
L 2950 3988 
L 3403 3988 
L 3403 3341 
L 5125 3341 
L 5125 2969 
L 3403 2969 
L 3403 2509 
L 5444 2509 
L 5444 2144 
L 3403 2144 
L 3403 1659 
L 6016 1659 
L 6016 1275 
L 3525 1275 
z
M 3413 4544 
L 5778 4544 
L 5778 3269 
L 5309 3269 
L 5309 4147 
L 1084 4147 
L 1084 3269 
L 616 3269 
L 616 4544 
L 2938 4544 
L 2938 5313 
L 3413 5313 
L 3413 4544 
z
" transform="scale(0.015625)"/>
       <path id="IPAexGothic-6e2c" d="M 3856 4884 
L 3856 1081 
L 2059 1081 
L 2059 4884 
L 3856 4884 
z
M 2456 4494 
L 2456 3756 
L 3459 3756 
L 3459 4494 
L 2456 4494 
z
M 2456 3384 
L 2456 2656 
L 3459 2656 
L 3459 3384 
L 2456 3384 
z
M 2456 2284 
L 2456 1478 
L 3459 1478 
L 3459 2284 
L 2456 2284 
z
M 1413 3891 
Q 1000 4428 556 4763 
L 856 5100 
Q 1309 4753 1734 4269 
L 1413 3891 
z
M 1222 2394 
Q 816 2878 325 3256 
L 625 3591 
Q 1141 3231 1528 2778 
L 1222 2394 
z
M 375 -78 
Q 916 800 1297 1906 
L 1669 1619 
Q 1284 478 759 -428 
L 375 -78 
z
M 3819 -256 
Q 3478 319 3128 716 
L 3469 966 
Q 3834 581 4172 63 
L 3819 -256 
z
M 4378 4513 
L 4806 4513 
L 4806 959 
L 4378 959 
L 4378 4513 
z
M 1638 -109 
Q 2103 300 2450 984 
L 2828 763 
Q 2425 -6 1944 -488 
L 1638 -109 
z
M 5419 5081 
L 5853 5081 
L 5853 109 
Q 5853 -391 5297 -391 
Q 4919 -391 4541 -359 
L 4441 109 
Q 4928 50 5219 50 
Q 5419 50 5419 244 
L 5419 5081 
z
" transform="scale(0.015625)"/>
       <path id="IPAexGothic-5024" d="M 4172 3675 
L 5453 3675 
L 5453 684 
L 3019 684 
L 3019 3675 
L 3750 3675 
Q 3788 3884 3825 4153 
L 2141 4153 
L 2141 4544 
L 3884 4544 
Q 3922 4844 3966 5325 
L 4434 5272 
L 4388 4953 
Q 4331 4578 4331 4544 
L 5863 4544 
L 5863 4153 
L 4269 4153 
Q 4200 3781 4172 3675 
z
M 5038 3316 
L 3434 3316 
L 3434 2803 
L 5038 2803 
L 5038 3316 
z
M 3434 2450 
L 3434 1941 
L 5038 1941 
L 5038 2450 
L 3434 2450 
z
M 3434 1588 
L 3434 1044 
L 5038 1044 
L 5038 1588 
L 3434 1588 
z
M 1509 3669 
L 1509 -447 
L 1069 -447 
L 1069 2725 
Q 856 2338 531 1875 
L 288 2266 
Q 1163 3531 1541 5325 
L 1975 5222 
Q 1791 4378 1509 3669 
z
M 2488 244 
L 6031 244 
L 6031 -153 
L 2488 -153 
L 2488 -447 
L 2059 -447 
L 2059 3213 
L 2488 3213 
L 2488 244 
z
" transform="scale(0.015625)"/>
      </defs>
      <use xlink:href="#IPAexGothic-5b9f"/>
      <use xlink:href="#IPAexGothic-6e2c" x="100"/>
      <use xlink:href="#IPAexGothic-5024" x="200"/>
     </g>
    </g>
    <g id="line2d_19">
     <path d="M 56.335938 35.332812 
L 66.335938 35.332812 
L 76.335938 35.332812 
" style="fill: none; stroke: #2ca02c; stroke-opacity: 0.9; stroke-linecap: square"/>
     <g>
      <use xlink:href="#mece87d79ae" x="66.335938" y="35.332812" style="fill: #008000; fill-opacity: 0.9; stroke: #008000; stroke-opacity: 0.9"/>
     </g>
    </g>
    <g id="text_18">
     <!-- 予測値(入力長-10) -->
     <g transform="translate(84.335938 38.832812) scale(0.1 -0.1)">
      <defs>
       <path id="IPAexGothic-4e88" d="M 3541 3491 
Q 3644 3419 3816 3300 
Q 3944 3213 3997 3175 
L 3663 2894 
L 5603 2894 
L 5872 2625 
Q 5181 1709 4463 1069 
L 4066 1378 
Q 4722 1878 5153 2466 
L 3509 2466 
L 3509 147 
Q 3509 -150 3388 -263 
Q 3266 -384 2822 -384 
Q 2341 -384 1863 -331 
L 1766 172 
Q 2416 84 2766 84 
Q 3022 84 3022 334 
L 3022 2466 
L 513 2466 
L 513 2894 
L 3553 2894 
Q 2809 3488 1947 3963 
L 2247 4291 
Q 2741 4009 3181 3725 
Q 3941 4191 4400 4591 
L 1159 4591 
L 1159 5006 
L 4975 5006 
L 5250 4725 
Q 4428 4044 3541 3491 
z
" transform="scale(0.015625)"/>
       <path id="IPAexGothic-28" d="M 1928 -1016 
L 1653 -1166 
Q 488 69 488 1875 
Q 488 3678 1653 4909 
L 1928 4763 
Q 1006 3522 1006 1881 
Q 1006 203 1928 -1016 
z
" transform="scale(0.015625)"/>
       <path id="IPAexGothic-5165" d="M 3275 3078 
Q 2806 619 819 -334 
L 447 91 
Q 2934 1156 3000 4550 
L 1472 4550 
L 1472 4984 
L 3525 4984 
L 3525 4728 
Q 3525 3053 4116 2041 
Q 4734 972 6022 275 
L 5650 -200 
Q 3697 1044 3275 3078 
z
" transform="scale(0.015625)"/>
       <path id="IPAexGothic-9577" d="M 1913 4581 
L 1913 4128 
L 5131 4128 
L 5131 3744 
L 1913 3744 
L 1913 3284 
L 5131 3284 
L 5131 2900 
L 1913 2900 
L 1913 2413 
L 6041 2413 
L 6041 2016 
L 3384 2016 
Q 3603 1503 4063 1063 
Q 4709 1478 5259 1984 
L 5650 1709 
Q 4950 1134 4378 788 
Q 5044 272 6066 6 
L 5766 -409 
Q 3613 259 2931 2016 
L 1913 2016 
L 1913 269 
Q 2741 466 3409 666 
L 3450 281 
Q 2244 -131 769 -456 
L 575 -6 
Q 1447 159 1453 159 
L 1453 2016 
L 353 2016 
L 353 2413 
L 1453 2413 
L 1453 4978 
L 5356 4978 
L 5356 4581 
L 1913 4581 
z
" transform="scale(0.015625)"/>
       <path id="IPAexGothic-2d" d="M 1969 1703 
L 319 1703 
L 319 2203 
L 1969 2203 
L 1969 1703 
z
" transform="scale(0.015625)"/>
       <path id="IPAexGothic-31" d="M 2463 63 
L 1900 63 
L 1900 4103 
Q 1372 3922 788 3797 
L 684 4231 
Q 1519 4441 2106 4731 
L 2463 4731 
L 2463 63 
z
" transform="scale(0.015625)"/>
       <path id="IPAexGothic-29" d="M 466 4909 
Q 1638 3672 1638 1875 
Q 1638 75 466 -1166 
L 191 -1016 
Q 1119 216 1119 1881 
Q 1119 3509 191 4763 
L 466 4909 
z
" transform="scale(0.015625)"/>
      </defs>
      <use xlink:href="#IPAexGothic-4e88"/>
      <use xlink:href="#IPAexGothic-6e2c" x="100"/>
      <use xlink:href="#IPAexGothic-5024" x="200"/>
      <use xlink:href="#IPAexGothic-28" x="300"/>
      <use xlink:href="#IPAexGothic-5165" x="333.300781"/>
      <use xlink:href="#IPAexGothic-529b" x="433.300781"/>
      <use xlink:href="#IPAexGothic-9577" x="533.300781"/>
      <use xlink:href="#IPAexGothic-2d" x="633.300781"/>
      <use xlink:href="#IPAexGothic-31" x="669.091797"/>
      <use xlink:href="#IPAexGothic-30" x="732.080078"/>
      <use xlink:href="#IPAexGothic-29" x="795.068359"/>
     </g>
    </g>
    <g id="line2d_20">
     <path d="M 56.335938 50.475 
L 66.335938 50.475 
L 76.335938 50.475 
" style="fill: none; stroke: #d62728; stroke-opacity: 0.9; stroke-linecap: square"/>
     <g>
      <use xlink:href="#m24494ed348" x="66.335938" y="50.475" style="fill: #ff0000; fill-opacity: 0.9; stroke: #ff0000; stroke-opacity: 0.9"/>
     </g>
    </g>
    <g id="text_19">
     <!-- 予測値(入力長-50) -->
     <g transform="translate(84.335938 53.975) scale(0.1 -0.1)">
      <use xlink:href="#IPAexGothic-4e88"/>
      <use xlink:href="#IPAexGothic-6e2c" x="100"/>
      <use xlink:href="#IPAexGothic-5024" x="200"/>
      <use xlink:href="#IPAexGothic-28" x="300"/>
      <use xlink:href="#IPAexGothic-5165" x="333.300781"/>
      <use xlink:href="#IPAexGothic-529b" x="433.300781"/>
      <use xlink:href="#IPAexGothic-9577" x="533.300781"/>
      <use xlink:href="#IPAexGothic-2d" x="633.300781"/>
      <use xlink:href="#IPAexGothic-35" x="669.091797"/>
      <use xlink:href="#IPAexGothic-30" x="732.080078"/>
      <use xlink:href="#IPAexGothic-29" x="795.068359"/>
     </g>
    </g>
   </g>
  </g>
 </g>
 <defs>
  <clipPath id="pff033d7072">
   <rect x="47.335938" y="7.2" width="446.4" height="194.04"/>
  </clipPath>
 </defs>
</svg>
