<?xml version="1.0" encoding="utf-8" standalone="no"?>
<!DOCTYPE svg PUBLIC "-//W3C//DTD SVG 1.1//EN"
  "http://www.w3.org/Graphics/SVG/1.1/DTD/svg11.dtd">
<svg xmlns:xlink="http://www.w3.org/1999/xlink" width="505.306328pt" height="241.588281pt" viewBox="0 0 505.306328 241.588281" xmlns="http://www.w3.org/2000/svg" version="1.1">
 <metadata>
  <rdf:RDF xmlns:dc="http://purl.org/dc/elements/1.1/" xmlns:cc="http://creativecommons.org/ns#" xmlns:rdf="http://www.w3.org/1999/02/22-rdf-syntax-ns#">
   <cc:Work>
    <dc:type rdf:resource="http://purl.org/dc/dcmitype/StillImage"/>
    <dc:date>2026-01-24T21:17:36.723492</dc:date>
    <dc:format>image/svg+xml</dc:format>
    <dc:creator>
     <cc:Agent>
      <dc:title>Matplotlib v3.9.2, https://matplotlib.org/</dc:title>
     </cc:Agent>
    </dc:creator>
   </cc:Work>
  </rdf:RDF>
 </metadata>
 <defs>
  <style type="text/css">*{stroke-linejoin: round; stroke-linecap: butt}</style>
 </defs>
 <g id="figure_1">
  <g id="patch_1">
   <path d="M 0 241.588281 
L 505.306328 241.588281 
L 505.306328 0 
L 0 0 
z
" style="fill: #ffffff"/>
  </g>
  <g id="axes_1">
   <g id="patch_2">
    <path d="M 51.706328 201.24 
L 498.106328 201.24 
L 498.106328 7.2 
L 51.706328 7.2 
z
" style="fill: #ffffff"/>
   </g>
   <g id="matplotlib.axis_1">
    <g id="xtick_1">
     <g id="line2d_1">
      <defs>
       <path id="mabdde7e572" d="M 0 0 
L 0 3.5 
" style="stroke: #000000; stroke-width: 0.8"/>
      </defs>
      <g>
       <use xlink:href="#mabdde7e572" x="71.997237" y="201.24" style="stroke: #000000; stroke-width: 0.8"/>
      </g>
     </g>
     <g id="text_1">
      <!-- 5.0 -->
      <g transform="translate(63.234776 216.854219) scale(0.115 -0.115)">
       <defs>
        <path id="IPAexGothic-35" d="M 1178 2603 
Q 1634 2963 2172 2963 
Q 2816 2963 3241 2528 
Q 3638 2113 3638 1497 
Q 3638 938 3297 513 
Q 2869 -31 2031 -31 
Q 959 -31 469 784 
L 938 1028 
Q 1309 434 2013 434 
Q 2466 434 2769 716 
Q 3081 1013 3081 1503 
Q 3081 1966 2806 2241 
Q 2519 2528 2056 2528 
Q 1406 2528 1072 2028 
L 591 2091 
L 884 4634 
L 3406 4634 
L 3406 4153 
L 1341 4153 
L 1134 2603 
L 1178 2603 
z
" transform="scale(0.015625)"/>
        <path id="IPAexGothic-2e" d="M 1184 63 
L 494 63 
L 494 753 
L 1184 753 
L 1184 63 
z
" transform="scale(0.015625)"/>
        <path id="IPAexGothic-30" d="M 2038 4725 
Q 2881 4725 3334 3944 
Q 3694 3325 3694 2344 
Q 3694 1372 3334 741 
Q 2888 -31 2016 -31 
Q 1147 -31 700 741 
Q 341 1372 341 2350 
Q 341 3713 1000 4334 
Q 1419 4725 2038 4725 
z
M 2016 4266 
Q 1516 4266 1228 3759 
Q 934 3247 934 2344 
Q 934 1456 1222 947 
Q 1513 447 2016 447 
Q 2619 447 2909 1153 
Q 3100 1622 3100 2375 
Q 3100 3256 2806 3759 
Q 2509 4266 2016 4266 
z
" transform="scale(0.015625)"/>
       </defs>
       <use xlink:href="#IPAexGothic-35"/>
       <use xlink:href="#IPAexGothic-2e" x="62.988281"/>
       <use xlink:href="#IPAexGothic-30" x="89.404297"/>
      </g>
     </g>
    </g>
    <g id="xtick_2">
     <g id="line2d_2">
      <g>
       <use xlink:href="#mabdde7e572" x="154.817274" y="201.24" style="stroke: #000000; stroke-width: 0.8"/>
      </g>
     </g>
     <g id="text_2">
      <!-- 5.5 -->
      <g transform="translate(146.054813 216.854219) scale(0.115 -0.115)">
       <use xlink:href="#IPAexGothic-35"/>
       <use xlink:href="#IPAexGothic-2e" x="62.988281"/>
       <use xlink:href="#IPAexGothic-35" x="89.404297"/>
      </g>
     </g>
    </g>
    <g id="xtick_3">
     <g id="line2d_3">
      <g>
       <use xlink:href="#mabdde7e572" x="237.637311" y="201.24" style="stroke: #000000; stroke-width: 0.8"/>
      </g>
     </g>
     <g id="text_3">
      <!-- 6.0 -->
      <g transform="translate(228.87485 216.854219) scale(0.115 -0.115)">
       <defs>
        <path id="IPAexGothic-36" d="M 1056 2328 
Q 1509 2981 2234 2981 
Q 2906 2981 3316 2513 
Q 3675 2106 3675 1522 
Q 3675 884 3272 434 
Q 2853 -31 2178 -31 
Q 1375 -31 922 581 
Q 481 1178 481 2228 
Q 481 3425 1013 4109 
Q 1494 4725 2272 4725 
Q 3191 4725 3609 4025 
L 3150 3775 
Q 2894 4266 2300 4266 
Q 1119 4266 1031 2328 
L 1056 2328 
z
M 2141 2547 
Q 1684 2547 1384 2206 
Q 1116 1900 1116 1541 
Q 1116 1156 1353 844 
Q 1672 428 2159 428 
Q 2669 428 2941 844 
Q 3125 1128 3125 1503 
Q 3125 1944 2881 2228 
Q 2600 2547 2141 2547 
z
" transform="scale(0.015625)"/>
       </defs>
       <use xlink:href="#IPAexGothic-36"/>
       <use xlink:href="#IPAexGothic-2e" x="62.988281"/>
       <use xlink:href="#IPAexGothic-30" x="89.404297"/>
      </g>
     </g>
    </g>
    <g id="xtick_4">
     <g id="line2d_4">
      <g>
       <use xlink:href="#mabdde7e572" x="320.457349" y="201.24" style="stroke: #000000; stroke-width: 0.8"/>
      </g>
     </g>
     <g id="text_4">
      <!-- 6.5 -->
      <g transform="translate(311.694888 216.854219) scale(0.115 -0.115)">
       <use xlink:href="#IPAexGothic-36"/>
       <use xlink:href="#IPAexGothic-2e" x="62.988281"/>
       <use xlink:href="#IPAexGothic-35" x="89.404297"/>
      </g>
     </g>
    </g>
    <g id="xtick_5">
     <g id="line2d_5">
      <g>
       <use xlink:href="#mabdde7e572" x="403.277386" y="201.24" style="stroke: #000000; stroke-width: 0.8"/>
      </g>
     </g>
     <g id="text_5">
      <!-- 7.0 -->
      <g transform="translate(394.514925 216.854219) scale(0.115 -0.115)">
       <defs>
        <path id="IPAexGothic-37" d="M 3597 4263 
Q 2238 2106 1778 63 
L 1131 63 
Q 1581 1834 2950 4128 
L 428 4128 
L 428 4634 
L 3597 4634 
L 3597 4263 
z
" transform="scale(0.015625)"/>
       </defs>
       <use xlink:href="#IPAexGothic-37"/>
       <use xlink:href="#IPAexGothic-2e" x="62.988281"/>
       <use xlink:href="#IPAexGothic-30" x="89.404297"/>
      </g>
     </g>
    </g>
    <g id="xtick_6">
     <g id="line2d_6">
      <g>
       <use xlink:href="#mabdde7e572" x="486.097423" y="201.24" style="stroke: #000000; stroke-width: 0.8"/>
      </g>
     </g>
     <g id="text_6">
      <!-- 7.5 -->
      <g transform="translate(477.334962 216.854219) scale(0.115 -0.115)">
       <use xlink:href="#IPAexGothic-37"/>
       <use xlink:href="#IPAexGothic-2e" x="62.988281"/>
       <use xlink:href="#IPAexGothic-35" x="89.404297"/>
      </g>
     </g>
    </g>
    <g id="text_7">
     <!-- 経過時間[s] -->
     <g transform="translate(245.802344 232.203281) scale(0.115 -0.115)">
      <defs>
       <path id="IPAexGothic-7d4c" d="M 1291 3059 
Q 922 3606 419 4109 
L 722 4425 
Q 778 4359 856 4272 
Q 928 4194 944 4175 
Q 1334 4731 1591 5325 
L 2025 5116 
Q 1550 4313 1188 3878 
Q 1378 3638 1534 3413 
Q 1853 3897 2213 4566 
L 2616 4341 
Q 1959 3263 1366 2563 
Q 1531 2566 2331 2625 
Q 2228 2897 2069 3200 
L 2403 3363 
Q 2688 2894 2863 2369 
Q 3497 2672 4106 3200 
Q 3563 3734 3166 4481 
L 2813 4481 
L 2813 4884 
L 5444 4884 
L 5681 4653 
Q 5306 3906 4706 3241 
Q 5334 2806 6097 2550 
L 5822 2113 
Q 4988 2459 4406 2931 
Q 3781 2353 3025 1947 
L 2819 2234 
L 2519 2075 
Q 2494 2178 2459 2272 
L 2447 2313 
Q 2159 2266 1866 2222 
L 1866 -447 
L 1444 -447 
L 1444 2172 
L 1353 2166 
Q 1031 2131 447 2081 
L 319 2522 
Q 759 2531 919 2541 
Q 1066 2738 1291 3059 
z
M 4400 3491 
Q 4819 3938 5091 4481 
L 3600 4481 
Q 3897 3934 4400 3491 
z
M 4141 1600 
L 4141 2438 
L 4581 2438 
L 4581 1600 
L 5741 1600 
L 5741 1197 
L 4581 1197 
L 4581 178 
L 6047 178 
L 6047 -225 
L 2753 -225 
L 2753 178 
L 4141 178 
L 4141 1197 
L 3034 1197 
L 3034 1600 
L 4141 1600 
z
M 397 219 
Q 644 900 709 1759 
L 1119 1709 
Q 1031 681 813 -19 
L 397 219 
z
M 2400 384 
Q 2278 1109 2047 1747 
L 2413 1856 
Q 2659 1281 2809 569 
L 2400 384 
z
" transform="scale(0.015625)"/>
       <path id="IPAexGothic-904e" d="M 1703 741 
Q 1975 363 2503 209 
Q 2903 94 3928 94 
Q 4897 94 6131 178 
Q 6025 -59 5978 -300 
Q 4931 -341 4384 -341 
Q 2819 -341 2234 -128 
Q 1759 44 1525 397 
Q 1113 -81 653 -447 
L 372 19 
Q 900 341 1269 672 
L 1269 2303 
L 378 2303 
L 378 2731 
L 1703 2731 
L 1703 741 
z
M 5338 2778 
L 2594 2778 
L 2594 428 
L 2178 428 
L 2178 3138 
L 2594 3138 
L 2594 5025 
L 5338 5025 
L 5338 3138 
L 5753 3138 
L 5753 878 
Q 5753 597 5638 513 
Q 5547 441 5313 441 
Q 5016 441 4709 481 
L 4659 903 
Q 4956 850 5184 850 
Q 5338 850 5338 1019 
L 5338 2778 
z
M 4934 3138 
L 4934 3784 
L 4041 3784 
L 4041 3138 
L 4934 3138 
z
M 3663 3138 
L 3663 4116 
L 4934 4116 
L 4934 4666 
L 3003 4666 
L 3003 3138 
L 3663 3138 
z
M 4750 2350 
L 4750 1113 
L 3469 1113 
L 3469 778 
L 3091 778 
L 3091 2350 
L 4750 2350 
z
M 3469 2019 
L 3469 1453 
L 4372 1453 
L 4372 2019 
L 3469 2019 
z
M 1522 3775 
Q 1053 4353 563 4738 
L 878 5056 
Q 1497 4566 1869 4122 
L 1522 3775 
z
" transform="scale(0.015625)"/>
       <path id="IPAexGothic-6642" d="M 2328 4728 
L 2328 563 
L 934 563 
L 934 56 
L 519 56 
L 519 4728 
L 2328 4728 
z
M 934 4331 
L 934 2881 
L 1906 2881 
L 1906 4331 
L 934 4331 
z
M 934 2497 
L 934 953 
L 1906 953 
L 1906 2497 
L 934 2497 
z
M 3938 4372 
L 3938 5313 
L 4378 5313 
L 4378 4372 
L 5772 4372 
L 5772 3981 
L 4378 3981 
L 4378 3194 
L 6072 3194 
L 6072 2803 
L 5203 2803 
L 5203 2047 
L 5959 2047 
L 5959 1650 
L 5216 1650 
L 5216 31 
Q 5216 -447 4691 -447 
Q 4394 -447 3888 -391 
L 3784 78 
Q 4272 0 4591 0 
Q 4775 0 4775 172 
L 4775 1650 
L 2581 1650 
L 2581 2047 
L 4763 2047 
L 4763 2803 
L 2538 2803 
L 2538 3194 
L 3938 3194 
L 3938 3981 
L 2716 3981 
L 2716 4372 
L 3938 4372 
z
M 3669 384 
Q 3331 950 2956 1325 
L 3291 1575 
Q 3719 1147 4025 659 
L 3669 384 
z
" transform="scale(0.015625)"/>
       <path id="IPAexGothic-9593" d="M 4450 2566 
L 4450 353 
L 2375 353 
L 2375 -25 
L 1953 -25 
L 1953 2566 
L 4450 2566 
z
M 4028 2200 
L 2375 2200 
L 2375 1653 
L 4028 1653 
L 4028 2200 
z
M 4028 1300 
L 2375 1300 
L 2375 719 
L 4028 719 
L 4028 1300 
z
M 2913 5019 
L 2913 3059 
L 1056 3059 
L 1056 -447 
L 609 -447 
L 609 5019 
L 2913 5019 
z
M 1056 4659 
L 1056 4206 
L 2497 4206 
L 2497 4659 
L 1056 4659 
z
M 1056 3881 
L 1056 3413 
L 2497 3413 
L 2497 3881 
L 1056 3881 
z
M 5788 5019 
L 5788 91 
Q 5788 -225 5641 -331 
Q 5525 -409 5231 -409 
Q 4803 -409 4481 -366 
L 4419 97 
Q 4853 38 5128 38 
Q 5341 38 5341 244 
L 5341 3059 
L 3438 3059 
L 3438 5019 
L 5788 5019 
z
M 3853 4659 
L 3853 4206 
L 5341 4206 
L 5341 4659 
L 3853 4659 
z
M 3853 3881 
L 3853 3413 
L 5341 3413 
L 5341 3881 
L 3853 3881 
z
" transform="scale(0.015625)"/>
       <path id="IPAexGothic-5b" d="M 1706 -991 
L 581 -991 
L 581 4750 
L 1706 4750 
L 1706 4438 
L 1028 4438 
L 1028 -678 
L 1706 -678 
L 1706 -991 
z
" transform="scale(0.015625)"/>
       <path id="IPAexGothic-73" d="M 2234 2547 
Q 1938 2931 1484 2931 
Q 891 2931 891 2475 
Q 891 2153 1531 1944 
L 1741 1875 
Q 2650 1578 2650 894 
Q 2650 434 2272 172 
Q 1972 -31 1497 -31 
Q 766 -31 256 503 
L 603 819 
Q 997 397 1516 397 
Q 2131 397 2131 875 
Q 2131 1238 1453 1478 
L 1234 1553 
Q 378 1853 378 2431 
Q 378 2797 628 3047 
Q 928 3347 1453 3347 
Q 2156 3347 2606 2859 
L 2234 2547 
z
" transform="scale(0.015625)"/>
       <path id="IPAexGothic-5d" d="M 1322 -991 
L 197 -991 
L 197 -678 
L 875 -678 
L 875 4438 
L 197 4438 
L 197 4750 
L 1322 4750 
L 1322 -991 
z
" transform="scale(0.015625)"/>
      </defs>
      <use xlink:href="#IPAexGothic-7d4c"/>
      <use xlink:href="#IPAexGothic-904e" x="100"/>
      <use xlink:href="#IPAexGothic-6642" x="200"/>
      <use xlink:href="#IPAexGothic-9593" x="300"/>
      <use xlink:href="#IPAexGothic-5b" x="400"/>
      <use xlink:href="#IPAexGothic-73" x="429.980469"/>
      <use xlink:href="#IPAexGothic-5d" x="476.171875"/>
     </g>
    </g>
   </g>
   <g id="matplotlib.axis_2">
    <g id="ytick_1">
     <g id="line2d_7">
      <defs>
       <path id="mc852f359ec" d="M 0 0 
L -3.5 0 
" style="stroke: #000000; stroke-width: 0.8"/>
      </defs>
      <g>
       <use xlink:href="#mc852f359ec" x="51.706328" y="181.149648" style="stroke: #000000; stroke-width: 0.8"/>
      </g>
     </g>
     <g id="text_8">
      <!-- −72 -->
      <g transform="translate(22.419688 185.456758) scale(0.115 -0.115)">
       <defs>
        <path id="IPAexGothic-2212" d="M 416 2222 
L 3922 2222 
L 3922 1856 
L 416 1856 
L 416 2222 
z
" transform="scale(0.015625)"/>
        <path id="IPAexGothic-32" d="M 3659 63 
L 447 63 
L 447 594 
Q 825 1475 1894 2203 
L 2072 2322 
Q 2619 2697 2791 2906 
Q 2988 3153 2988 3444 
Q 2988 3772 2756 4003 
Q 2500 4259 2084 4259 
Q 1250 4259 991 3328 
L 497 3506 
Q 853 4725 2116 4725 
Q 2806 4725 3216 4316 
Q 3575 3947 3575 3425 
Q 3575 3038 3344 2722 
Q 3131 2416 2366 1938 
L 2231 1856 
Q 1256 1253 978 569 
L 3659 569 
L 3659 63 
z
" transform="scale(0.015625)"/>
       </defs>
       <use xlink:href="#IPAexGothic-2212"/>
       <use xlink:href="#IPAexGothic-37" x="67.822266"/>
       <use xlink:href="#IPAexGothic-32" x="130.810547"/>
      </g>
     </g>
    </g>
    <g id="ytick_2">
     <g id="line2d_8">
      <g>
       <use xlink:href="#mc852f359ec" x="51.706328" y="149.491357" style="stroke: #000000; stroke-width: 0.8"/>
      </g>
     </g>
     <g id="text_9">
      <!-- −70 -->
      <g transform="translate(22.419688 153.798466) scale(0.115 -0.115)">
       <use xlink:href="#IPAexGothic-2212"/>
       <use xlink:href="#IPAexGothic-37" x="67.822266"/>
       <use xlink:href="#IPAexGothic-30" x="130.810547"/>
      </g>
     </g>
    </g>
    <g id="ytick_3">
     <g id="line2d_9">
      <g>
       <use xlink:href="#mc852f359ec" x="51.706328" y="117.833065" style="stroke: #000000; stroke-width: 0.8"/>
      </g>
     </g>
     <g id="text_10">
      <!-- −68 -->
      <g transform="translate(22.419688 122.140175) scale(0.115 -0.115)">
       <defs>
        <path id="IPAexGothic-38" d="M 2541 2425 
Q 3700 2031 3700 1197 
Q 3700 541 3100 197 
Q 2663 -56 2016 -56 
Q 1366 -56 928 197 
Q 347 531 347 1178 
Q 347 1988 1409 2381 
L 1409 2400 
Q 481 2734 481 3509 
Q 481 4100 981 4456 
Q 1406 4756 2019 4756 
Q 2703 4756 3131 4403 
Q 3553 4069 3553 3566 
Q 3553 2706 2541 2444 
L 2541 2425 
z
M 2022 2625 
Q 2997 2856 2997 3528 
Q 2997 3916 2675 4150 
Q 2413 4347 2016 4347 
Q 1606 4347 1331 4128 
Q 1050 3897 1050 3522 
Q 1050 3150 1350 2925 
Q 1494 2809 1722 2722 
Q 1984 2616 2022 2625 
z
M 1978 2209 
Q 922 1931 922 1216 
Q 922 775 1313 556 
Q 1606 391 2009 391 
Q 2575 391 2881 697 
Q 3106 922 3106 1250 
Q 3106 1594 2794 1850 
Q 2609 1994 2350 2100 
Q 2047 2222 1978 2209 
z
" transform="scale(0.015625)"/>
       </defs>
       <use xlink:href="#IPAexGothic-2212"/>
       <use xlink:href="#IPAexGothic-36" x="67.822266"/>
       <use xlink:href="#IPAexGothic-38" x="130.810547"/>
      </g>
     </g>
    </g>
    <g id="ytick_4">
     <g id="line2d_10">
      <g>
       <use xlink:href="#mc852f359ec" x="51.706328" y="86.174774" style="stroke: #000000; stroke-width: 0.8"/>
      </g>
     </g>
     <g id="text_11">
      <!-- −66 -->
      <g transform="translate(22.419688 90.481883) scale(0.115 -0.115)">
       <use xlink:href="#IPAexGothic-2212"/>
       <use xlink:href="#IPAexGothic-36" x="67.822266"/>
       <use xlink:href="#IPAexGothic-36" x="130.810547"/>
      </g>
     </g>
    </g>
    <g id="ytick_5">
     <g id="line2d_11">
      <g>
       <use xlink:href="#mc852f359ec" x="51.706328" y="54.516482" style="stroke: #000000; stroke-width: 0.8"/>
      </g>
     </g>
     <g id="text_12">
      <!-- −64 -->
      <g transform="translate(22.419688 58.823592) scale(0.115 -0.115)">
       <defs>
        <path id="IPAexGothic-34" d="M 3813 1159 
L 3059 1159 
L 3059 63 
L 2547 63 
L 2547 1159 
L 197 1159 
L 197 1672 
L 2456 4678 
L 3059 4678 
L 3059 1634 
L 3813 1634 
L 3813 1159 
z
M 2578 4109 
L 2559 4109 
Q 2278 3656 2003 3284 
L 759 1634 
L 2547 1634 
L 2547 3144 
Q 2547 3481 2578 4109 
z
" transform="scale(0.015625)"/>
       </defs>
       <use xlink:href="#IPAexGothic-2212"/>
       <use xlink:href="#IPAexGothic-36" x="67.822266"/>
       <use xlink:href="#IPAexGothic-34" x="130.810547"/>
      </g>
     </g>
    </g>
    <g id="ytick_6">
     <g id="line2d_12">
      <g>
       <use xlink:href="#mc852f359ec" x="51.706328" y="22.858191" style="stroke: #000000; stroke-width: 0.8"/>
      </g>
     </g>
     <g id="text_13">
      <!-- −62 -->
      <g transform="translate(22.419688 27.1653) scale(0.115 -0.115)">
       <use xlink:href="#IPAexGothic-2212"/>
       <use xlink:href="#IPAexGothic-36" x="67.822266"/>
       <use xlink:href="#IPAexGothic-32" x="130.810547"/>
      </g>
     </g>
    </g>
    <g id="text_14">
     <!-- 受信電力レベル[dBm] -->
     <g transform="translate(16.234688 160.305859) rotate(-90) scale(0.115 -0.115)">
      <defs>
       <path id="IPAexGothic-53d7" d="M 1781 3347 
Q 1775 3363 1756 3403 
Q 1738 3441 1728 3463 
Q 1591 3800 1416 4056 
L 1838 4184 
Q 2084 3834 2278 3347 
L 3066 3347 
Q 2928 3744 2675 4172 
L 3103 4281 
Q 3359 3863 3559 3347 
L 4019 3347 
Q 4278 3800 4538 4441 
L 4997 4300 
Q 4769 3788 4484 3347 
L 5747 3347 
L 5747 2078 
L 5278 2078 
L 5278 2944 
L 1116 2944 
L 1116 2078 
L 647 2078 
L 647 3347 
L 1781 3347 
z
M 3663 731 
Q 4431 313 5947 91 
L 5606 -375 
Q 4219 -100 3278 463 
Q 2184 -206 781 -491 
L 500 -63 
Q 1875 150 2894 731 
Q 2244 1228 1734 1947 
L 1384 1947 
L 1384 2350 
L 4725 2350 
L 4953 2144 
Q 4428 1309 3663 731 
z
M 3272 981 
Q 3947 1475 4288 1947 
L 2228 1947 
Q 2656 1419 3272 981 
z
M 775 4647 
Q 3241 4716 4922 5141 
L 5294 4738 
Q 3472 4347 981 4213 
L 775 4647 
z
" transform="scale(0.015625)"/>
       <path id="IPAexGothic-4fe1" d="M 1572 3809 
L 1572 -447 
L 1119 -447 
L 1119 2847 
Q 856 2372 550 1972 
L 300 2363 
Q 1172 3550 1566 5253 
L 2013 5147 
Q 1819 4428 1572 3809 
z
M 5534 1619 
L 5534 -447 
L 5081 -447 
L 5081 -116 
L 2763 -116 
L 2763 -447 
L 2316 -447 
L 2316 1619 
L 5534 1619 
z
M 2763 1234 
L 2763 269 
L 5081 269 
L 5081 1234 
L 2763 1234 
z
M 2475 4984 
L 5375 4984 
L 5375 4588 
L 2475 4588 
L 2475 4984 
z
M 2475 3297 
L 5375 3297 
L 5375 2906 
L 2475 2906 
L 2475 3297 
z
M 2475 2456 
L 5375 2456 
L 5375 2066 
L 2475 2066 
L 2475 2456 
z
M 1894 4147 
L 6003 4147 
L 6003 3738 
L 1894 3738 
L 1894 4147 
z
" transform="scale(0.015625)"/>
       <path id="IPAexGothic-96fb" d="M 2956 4378 
L 2956 4741 
L 1053 4741 
L 1053 5106 
L 5338 5106 
L 5338 4741 
L 3397 4741 
L 3397 4378 
L 5797 4378 
L 5797 3084 
L 5344 3084 
L 5344 4031 
L 3397 4031 
L 3397 2638 
L 2956 2638 
L 2956 4031 
L 1047 4031 
L 1047 3072 
L 594 3072 
L 594 4378 
L 2956 4378 
z
M 3363 544 
L 3363 238 
Q 3363 59 3497 31 
Q 3600 6 4491 6 
Q 5219 6 5347 31 
Q 5556 78 5584 281 
Q 5609 500 5616 684 
L 6038 556 
Q 6028 -109 5797 -256 
Q 5619 -378 4419 -378 
Q 3256 -378 3128 -313 
Q 2959 -225 2959 91 
L 2959 544 
L 1456 544 
L 1456 166 
L 1034 166 
L 1034 2400 
L 5316 2400 
L 5316 544 
L 3363 544 
z
M 2959 2059 
L 1456 2059 
L 1456 1666 
L 2959 1666 
L 2959 2059 
z
M 3363 2059 
L 3363 1666 
L 4900 1666 
L 4900 2059 
L 3363 2059 
z
M 2959 1325 
L 1456 1325 
L 1456 897 
L 2959 897 
L 2959 1325 
z
M 3363 1325 
L 3363 897 
L 4900 897 
L 4900 1325 
L 3363 1325 
z
M 1338 3688 
L 2663 3688 
L 2663 3375 
L 1338 3375 
L 1338 3688 
z
M 1338 3072 
L 2663 3072 
L 2663 2753 
L 1338 2753 
L 1338 3072 
z
M 3691 3688 
L 5053 3688 
L 5053 3375 
L 3691 3375 
L 3691 3688 
z
M 3691 3072 
L 5053 3072 
L 5053 2753 
L 3691 2753 
L 3691 3072 
z
" transform="scale(0.015625)"/>
       <path id="IPAexGothic-529b" d="M 3303 3944 
L 5653 3944 
Q 5622 1247 5428 356 
Q 5303 -231 4647 -231 
Q 4159 -231 3456 -147 
L 3381 416 
Q 4022 263 4456 263 
Q 4881 263 4947 616 
Q 5106 1509 5134 3303 
L 5141 3509 
L 3291 3509 
Q 3234 2200 2741 1281 
Q 2194 297 878 -416 
L 525 -6 
Q 2709 963 2778 3450 
L 641 3450 
L 641 3891 
L 2784 3891 
L 2784 5147 
L 3303 5147 
L 3303 3944 
z
" transform="scale(0.015625)"/>
       <path id="IPAexGothic-30ec" d="M 1538 4706 
L 2075 4706 
L 2075 622 
Q 4059 1375 5172 2894 
L 5481 2431 
Q 4922 1678 3931 1019 
Q 2919 334 1928 -31 
L 1538 269 
L 1538 4706 
z
" transform="scale(0.015625)"/>
       <path id="IPAexGothic-30d9" d="M 428 1991 
Q 1119 2547 2100 3681 
Q 2356 3975 2566 3975 
Q 2772 3975 3181 3584 
Q 4328 2475 5950 1356 
L 5600 863 
Q 3994 2081 2816 3241 
Q 2653 3394 2584 3394 
Q 2513 3394 2291 3125 
Q 1706 2384 775 1528 
L 428 1991 
z
M 5356 3719 
Q 4994 4259 4600 4588 
L 4903 4819 
Q 5288 4509 5675 3994 
L 5356 3719 
z
M 4759 3250 
Q 4472 3741 4025 4141 
L 4338 4381 
Q 4709 4075 5094 3525 
L 4759 3250 
z
" transform="scale(0.015625)"/>
       <path id="IPAexGothic-30eb" d="M 353 331 
Q 1313 994 1544 2022 
Q 1684 2650 1684 4397 
L 2203 4397 
L 2203 4153 
L 2203 4116 
Q 2203 2259 1934 1491 
Q 1619 588 744 -38 
L 353 331 
z
M 3125 4666 
L 3650 4666 
L 3650 769 
Q 4875 1488 5672 2734 
L 6000 2278 
Q 5075 966 3516 63 
L 3125 359 
L 3125 4666 
z
" transform="scale(0.015625)"/>
       <path id="IPAexGothic-64" d="M 3391 63 
L 2891 63 
L 2891 619 
Q 2441 -31 1753 -31 
Q 1181 -31 788 372 
Q 313 844 313 1663 
Q 313 2466 772 2938 
Q 1169 3341 1753 3341 
Q 2384 3341 2847 2809 
L 2847 4794 
L 3391 4794 
L 3391 63 
z
M 2847 1303 
L 2847 2097 
Q 2847 2413 2456 2706 
Q 2181 2906 1853 2906 
Q 1484 2906 1228 2650 
Q 888 2309 888 1678 
Q 888 1109 1169 750 
Q 1441 409 1847 409 
Q 2322 409 2656 875 
Q 2847 1134 2847 1303 
z
" transform="scale(0.015625)"/>
       <path id="IPAexGothic-42" d="M 2688 2425 
Q 3816 2225 3816 1338 
Q 3816 556 3041 222 
Q 2672 63 2094 63 
L 609 63 
L 609 4634 
L 1916 4634 
Q 2494 4634 2869 4500 
Q 3644 4222 3644 3491 
Q 3644 2609 2688 2447 
L 2688 2425 
z
M 1159 2656 
L 1844 2656 
Q 3063 2656 3063 3431 
Q 3063 4181 1881 4181 
L 1159 4181 
L 1159 2656 
z
M 1159 522 
L 2016 522 
Q 3222 522 3222 1369 
Q 3222 1897 2625 2100 
Q 2278 2222 1875 2222 
L 1159 2222 
L 1159 522 
z
" transform="scale(0.015625)"/>
       <path id="IPAexGothic-6d" d="M 5022 63 
L 4472 63 
L 4472 2059 
Q 4472 2869 3847 2869 
Q 3550 2869 3303 2594 
Q 3128 2397 3059 2103 
L 3059 63 
L 2509 63 
L 2509 2066 
Q 2509 2869 1919 2869 
Q 1606 2869 1369 2594 
Q 1113 2306 1113 2041 
L 1113 63 
L 563 63 
L 563 3250 
L 1075 3250 
L 1075 2700 
Q 1391 3316 2028 3316 
Q 2725 3316 2956 2647 
Q 3303 3316 3953 3316 
Q 4478 3316 4772 2944 
Q 5022 2638 5022 2072 
L 5022 63 
z
" transform="scale(0.015625)"/>
      </defs>
      <use xlink:href="#IPAexGothic-53d7"/>
      <use xlink:href="#IPAexGothic-4fe1" x="100"/>
      <use xlink:href="#IPAexGothic-96fb" x="200"/>
      <use xlink:href="#IPAexGothic-529b" x="300"/>
      <use xlink:href="#IPAexGothic-30ec" x="400"/>
      <use xlink:href="#IPAexGothic-30d9" x="500"/>
      <use xlink:href="#IPAexGothic-30eb" x="600"/>
      <use xlink:href="#IPAexGothic-5b" x="700"/>
      <use xlink:href="#IPAexGothic-64" x="729.980469"/>
      <use xlink:href="#IPAexGothic-42" x="792.382812"/>
      <use xlink:href="#IPAexGothic-6d" x="858.300781"/>
      <use xlink:href="#IPAexGothic-5d" x="945.410156"/>
     </g>
    </g>
   </g>
   <g id="line2d_13">
    <path d="M 71.997237 77.690352 
L 80.279241 39.320503 
L 88.561245 35.83809 
L 96.843248 48.62804 
L 105.125252 26.783819 
L 113.407256 34.571759 
L 121.689259 46.22201 
L 129.971263 73.448141 
L 138.253267 56.03608 
L 146.535271 36.471256 
L 154.817274 40.713467 
L 163.099278 20.388844 
L 171.381282 26.657186 
L 179.663285 24.694372 
L 187.945289 52.680302 
L 196.227293 29.379799 
L 204.509297 37.547638 
L 212.7913 24.694372 
L 221.073304 16.02 
L 229.355308 29.569749 
L 237.637311 59.20191 
L 245.919315 76.360704 
L 254.201319 105.106432 
L 262.483323 145.755678 
L 270.765326 117.516482 
L 279.04733 137.20794 
L 287.329334 63.190854 
L 295.611337 111.43809 
L 303.893341 142.906432 
L 312.175345 172.285327 
L 320.457349 173.994874 
L 328.739352 192.040101 
L 337.021356 120.555678 
L 345.30336 65.786834 
L 353.585363 90.163719 
L 361.867367 95.735578 
L 370.149371 155.633065 
L 378.431375 192.42 
L 386.713378 159.305427 
L 394.995382 123.531558 
L 403.277386 35.83809 
L 411.559389 38.877286 
L 419.841393 68.509447 
L 428.123397 94.342613 
L 436.4054 81.869246 
L 444.687404 41.979799 
L 452.969408 32.482312 
L 461.251412 28.999899 
L 469.533415 63.000905 
L 477.815419 100.927538 
" clip-path="url(#p7d34746b5a)" style="fill: none; stroke: #000000; stroke-opacity: 0.5; stroke-width: 1.3; stroke-linecap: square"/>
    <defs>
     <path id="mfb6d9d302b" d="M 0 1.8 
C 0.477366 1.8 0.935244 1.610341 1.272792 1.272792 
C 1.610341 0.935244 1.8 0.477366 1.8 0 
C 1.8 -0.477366 1.610341 -0.935244 1.272792 -1.272792 
C 0.935244 -1.610341 0.477366 -1.8 0 -1.8 
C -0.477366 -1.8 -0.935244 -1.610341 -1.272792 -1.272792 
C -1.610341 -0.935244 -1.8 -0.477366 -1.8 0 
C -1.8 0.477366 -1.610341 0.935244 -1.272792 1.272792 
C -0.935244 1.610341 -0.477366 1.8 0 1.8 
z
" style="stroke: #000000; stroke-opacity: 0.5"/>
    </defs>
    <g clip-path="url(#p7d34746b5a)">
     <use xlink:href="#mfb6d9d302b" x="71.997237" y="77.690352" style="fill-opacity: 0.5; stroke: #000000; stroke-opacity: 0.5"/>
     <use xlink:href="#mfb6d9d302b" x="80.279241" y="39.320503" style="fill-opacity: 0.5; stroke: #000000; stroke-opacity: 0.5"/>
     <use xlink:href="#mfb6d9d302b" x="88.561245" y="35.83809" style="fill-opacity: 0.5; stroke: #000000; stroke-opacity: 0.5"/>
     <use xlink:href="#mfb6d9d302b" x="96.843248" y="48.62804" style="fill-opacity: 0.5; stroke: #000000; stroke-opacity: 0.5"/>
     <use xlink:href="#mfb6d9d302b" x="105.125252" y="26.783819" style="fill-opacity: 0.5; stroke: #000000; stroke-opacity: 0.5"/>
     <use xlink:href="#mfb6d9d302b" x="113.407256" y="34.571759" style="fill-opacity: 0.5; stroke: #000000; stroke-opacity: 0.5"/>
     <use xlink:href="#mfb6d9d302b" x="121.689259" y="46.22201" style="fill-opacity: 0.5; stroke: #000000; stroke-opacity: 0.5"/>
     <use xlink:href="#mfb6d9d302b" x="129.971263" y="73.448141" style="fill-opacity: 0.5; stroke: #000000; stroke-opacity: 0.5"/>
     <use xlink:href="#mfb6d9d302b" x="138.253267" y="56.03608" style="fill-opacity: 0.5; stroke: #000000; stroke-opacity: 0.5"/>
     <use xlink:href="#mfb6d9d302b" x="146.535271" y="36.471256" style="fill-opacity: 0.5; stroke: #000000; stroke-opacity: 0.5"/>
     <use xlink:href="#mfb6d9d302b" x="154.817274" y="40.713467" style="fill-opacity: 0.5; stroke: #000000; stroke-opacity: 0.5"/>
     <use xlink:href="#mfb6d9d302b" x="163.099278" y="20.388844" style="fill-opacity: 0.5; stroke: #000000; stroke-opacity: 0.5"/>
     <use xlink:href="#mfb6d9d302b" x="171.381282" y="26.657186" style="fill-opacity: 0.5; stroke: #000000; stroke-opacity: 0.5"/>
     <use xlink:href="#mfb6d9d302b" x="179.663285" y="24.694372" style="fill-opacity: 0.5; stroke: #000000; stroke-opacity: 0.5"/>
     <use xlink:href="#mfb6d9d302b" x="187.945289" y="52.680302" style="fill-opacity: 0.5; stroke: #000000; stroke-opacity: 0.5"/>
     <use xlink:href="#mfb6d9d302b" x="196.227293" y="29.379799" style="fill-opacity: 0.5; stroke: #000000; stroke-opacity: 0.5"/>
     <use xlink:href="#mfb6d9d302b" x="204.509297" y="37.547638" style="fill-opacity: 0.5; stroke: #000000; stroke-opacity: 0.5"/>
     <use xlink:href="#mfb6d9d302b" x="212.7913" y="24.694372" style="fill-opacity: 0.5; stroke: #000000; stroke-opacity: 0.5"/>
     <use xlink:href="#mfb6d9d302b" x="221.073304" y="16.02" style="fill-opacity: 0.5; stroke: #000000; stroke-opacity: 0.5"/>
     <use xlink:href="#mfb6d9d302b" x="229.355308" y="29.569749" style="fill-opacity: 0.5; stroke: #000000; stroke-opacity: 0.5"/>
     <use xlink:href="#mfb6d9d302b" x="237.637311" y="59.20191" style="fill-opacity: 0.5; stroke: #000000; stroke-opacity: 0.5"/>
     <use xlink:href="#mfb6d9d302b" x="245.919315" y="76.360704" style="fill-opacity: 0.5; stroke: #000000; stroke-opacity: 0.5"/>
     <use xlink:href="#mfb6d9d302b" x="254.201319" y="105.106432" style="fill-opacity: 0.5; stroke: #000000; stroke-opacity: 0.5"/>
     <use xlink:href="#mfb6d9d302b" x="262.483323" y="145.755678" style="fill-opacity: 0.5; stroke: #000000; stroke-opacity: 0.5"/>
     <use xlink:href="#mfb6d9d302b" x="270.765326" y="117.516482" style="fill-opacity: 0.5; stroke: #000000; stroke-opacity: 0.5"/>
     <use xlink:href="#mfb6d9d302b" x="279.04733" y="137.20794" style="fill-opacity: 0.5; stroke: #000000; stroke-opacity: 0.5"/>
     <use xlink:href="#mfb6d9d302b" x="287.329334" y="63.190854" style="fill-opacity: 0.5; stroke: #000000; stroke-opacity: 0.5"/>
     <use xlink:href="#mfb6d9d302b" x="295.611337" y="111.43809" style="fill-opacity: 0.5; stroke: #000000; stroke-opacity: 0.5"/>
     <use xlink:href="#mfb6d9d302b" x="303.893341" y="142.906432" style="fill-opacity: 0.5; stroke: #000000; stroke-opacity: 0.5"/>
     <use xlink:href="#mfb6d9d302b" x="312.175345" y="172.285327" style="fill-opacity: 0.5; stroke: #000000; stroke-opacity: 0.5"/>
     <use xlink:href="#mfb6d9d302b" x="320.457349" y="173.994874" style="fill-opacity: 0.5; stroke: #000000; stroke-opacity: 0.5"/>
     <use xlink:href="#mfb6d9d302b" x="328.739352" y="192.040101" style="fill-opacity: 0.5; stroke: #000000; stroke-opacity: 0.5"/>
     <use xlink:href="#mfb6d9d302b" x="337.021356" y="120.555678" style="fill-opacity: 0.5; stroke: #000000; stroke-opacity: 0.5"/>
     <use xlink:href="#mfb6d9d302b" x="345.30336" y="65.786834" style="fill-opacity: 0.5; stroke: #000000; stroke-opacity: 0.5"/>
     <use xlink:href="#mfb6d9d302b" x="353.585363" y="90.163719" style="fill-opacity: 0.5; stroke: #000000; stroke-opacity: 0.5"/>
     <use xlink:href="#mfb6d9d302b" x="361.867367" y="95.735578" style="fill-opacity: 0.5; stroke: #000000; stroke-opacity: 0.5"/>
     <use xlink:href="#mfb6d9d302b" x="370.149371" y="155.633065" style="fill-opacity: 0.5; stroke: #000000; stroke-opacity: 0.5"/>
     <use xlink:href="#mfb6d9d302b" x="378.431375" y="192.42" style="fill-opacity: 0.5; stroke: #000000; stroke-opacity: 0.5"/>
     <use xlink:href="#mfb6d9d302b" x="386.713378" y="159.305427" style="fill-opacity: 0.5; stroke: #000000; stroke-opacity: 0.5"/>
     <use xlink:href="#mfb6d9d302b" x="394.995382" y="123.531558" style="fill-opacity: 0.5; stroke: #000000; stroke-opacity: 0.5"/>
     <use xlink:href="#mfb6d9d302b" x="403.277386" y="35.83809" style="fill-opacity: 0.5; stroke: #000000; stroke-opacity: 0.5"/>
     <use xlink:href="#mfb6d9d302b" x="411.559389" y="38.877286" style="fill-opacity: 0.5; stroke: #000000; stroke-opacity: 0.5"/>
     <use xlink:href="#mfb6d9d302b" x="419.841393" y="68.509447" style="fill-opacity: 0.5; stroke: #000000; stroke-opacity: 0.5"/>
     <use xlink:href="#mfb6d9d302b" x="428.123397" y="94.342613" style="fill-opacity: 0.5; stroke: #000000; stroke-opacity: 0.5"/>
     <use xlink:href="#mfb6d9d302b" x="436.4054" y="81.869246" style="fill-opacity: 0.5; stroke: #000000; stroke-opacity: 0.5"/>
     <use xlink:href="#mfb6d9d302b" x="444.687404" y="41.979799" style="fill-opacity: 0.5; stroke: #000000; stroke-opacity: 0.5"/>
     <use xlink:href="#mfb6d9d302b" x="452.969408" y="32.482312" style="fill-opacity: 0.5; stroke: #000000; stroke-opacity: 0.5"/>
     <use xlink:href="#mfb6d9d302b" x="461.251412" y="28.999899" style="fill-opacity: 0.5; stroke: #000000; stroke-opacity: 0.5"/>
     <use xlink:href="#mfb6d9d302b" x="469.533415" y="63.000905" style="fill-opacity: 0.5; stroke: #000000; stroke-opacity: 0.5"/>
     <use xlink:href="#mfb6d9d302b" x="477.815419" y="100.927538" style="fill-opacity: 0.5; stroke: #000000; stroke-opacity: 0.5"/>
    </g>
   </g>
   <g id="line2d_14">
    <path d="M 71.997237 61.013253 
L 80.279241 28.892787 
L 88.561245 64.479864 
L 96.843248 59.649434 
L 105.125252 59.495335 
L 113.407256 78.847852 
L 121.689259 43.161143 
L 129.971263 53.63567 
L 138.253267 70.741622 
L 146.535271 44.286508 
L 154.817274 49.548257 
L 163.099278 66.285328 
L 171.381282 81.71232 
L 179.663285 57.415248 
L 187.945289 43.440597 
L 196.227293 57.613064 
L 204.509297 37.850604 
L 212.7913 49.257571 
L 221.073304 40.403191 
L 229.355308 60.141679 
L 237.637311 35.665208 
L 245.919315 55.172246 
L 254.201319 36.719502 
L 262.483323 32.969633 
L 270.765326 49.981085 
L 279.04733 61.648245 
L 287.329334 66.955342 
L 295.611337 80.839418 
L 303.893341 106.723124 
L 312.175345 84.208811 
L 320.457349 117.663026 
L 328.739352 63.147202 
L 337.021356 102.909791 
L 345.30336 116.73771 
L 353.585363 122.884257 
L 361.867367 120.270381 
L 370.149371 143.043376 
L 378.431375 110.67884 
L 386.713378 77.385004 
L 394.995382 125.762493 
L 403.277386 120.150339 
L 411.559389 113.674461 
L 419.841393 119.540587 
L 428.123397 110.708428 
L 436.4054 118.899436 
L 444.687404 58.580285 
L 452.969408 94.316509 
L 461.251412 98.78633 
L 469.533415 96.964442 
L 477.815419 75.131979 
" clip-path="url(#p7d34746b5a)" style="fill: none; stroke-dasharray: 4.81,2.08; stroke-dashoffset: 0; stroke: #2ca02c; stroke-opacity: 0.9; stroke-width: 1.3"/>
    <defs>
     <path id="m7636fefc52" d="M 0 1.8 
C 0.477366 1.8 0.935244 1.610341 1.272792 1.272792 
C 1.610341 0.935244 1.8 0.477366 1.8 0 
C 1.8 -0.477366 1.610341 -0.935244 1.272792 -1.272792 
C 0.935244 -1.610341 0.477366 -1.8 0 -1.8 
C -0.477366 -1.8 -0.935244 -1.610341 -1.272792 -1.272792 
C -1.610341 -0.935244 -1.8 -0.477366 -1.8 0 
C -1.8 0.477366 -1.610341 0.935244 -1.272792 1.272792 
C -0.935244 1.610341 -0.477366 1.8 0 1.8 
z
" style="stroke: #008000; stroke-opacity: 0.9"/>
    </defs>
    <g clip-path="url(#p7d34746b5a)">
     <use xlink:href="#m7636fefc52" x="71.997237" y="61.013253" style="fill: #008000; fill-opacity: 0.9; stroke: #008000; stroke-opacity: 0.9"/>
     <use xlink:href="#m7636fefc52" x="80.279241" y="28.892787" style="fill: #008000; fill-opacity: 0.9; stroke: #008000; stroke-opacity: 0.9"/>
     <use xlink:href="#m7636fefc52" x="88.561245" y="64.479864" style="fill: #008000; fill-opacity: 0.9; stroke: #008000; stroke-opacity: 0.9"/>
     <use xlink:href="#m7636fefc52" x="96.843248" y="59.649434" style="fill: #008000; fill-opacity: 0.9; stroke: #008000; stroke-opacity: 0.9"/>
     <use xlink:href="#m7636fefc52" x="105.125252" y="59.495335" style="fill: #008000; fill-opacity: 0.9; stroke: #008000; stroke-opacity: 0.9"/>
     <use xlink:href="#m7636fefc52" x="113.407256" y="78.847852" style="fill: #008000; fill-opacity: 0.9; stroke: #008000; stroke-opacity: 0.9"/>
     <use xlink:href="#m7636fefc52" x="121.689259" y="43.161143" style="fill: #008000; fill-opacity: 0.9; stroke: #008000; stroke-opacity: 0.9"/>
     <use xlink:href="#m7636fefc52" x="129.971263" y="53.63567" style="fill: #008000; fill-opacity: 0.9; stroke: #008000; stroke-opacity: 0.9"/>
     <use xlink:href="#m7636fefc52" x="138.253267" y="70.741622" style="fill: #008000; fill-opacity: 0.9; stroke: #008000; stroke-opacity: 0.9"/>
     <use xlink:href="#m7636fefc52" x="146.535271" y="44.286508" style="fill: #008000; fill-opacity: 0.9; stroke: #008000; stroke-opacity: 0.9"/>
     <use xlink:href="#m7636fefc52" x="154.817274" y="49.548257" style="fill: #008000; fill-opacity: 0.9; stroke: #008000; stroke-opacity: 0.9"/>
     <use xlink:href="#m7636fefc52" x="163.099278" y="66.285328" style="fill: #008000; fill-opacity: 0.9; stroke: #008000; stroke-opacity: 0.9"/>
     <use xlink:href="#m7636fefc52" x="171.381282" y="81.71232" style="fill: #008000; fill-opacity: 0.9; stroke: #008000; stroke-opacity: 0.9"/>
     <use xlink:href="#m7636fefc52" x="179.663285" y="57.415248" style="fill: #008000; fill-opacity: 0.9; stroke: #008000; stroke-opacity: 0.9"/>
     <use xlink:href="#m7636fefc52" x="187.945289" y="43.440597" style="fill: #008000; fill-opacity: 0.9; stroke: #008000; stroke-opacity: 0.9"/>
     <use xlink:href="#m7636fefc52" x="196.227293" y="57.613064" style="fill: #008000; fill-opacity: 0.9; stroke: #008000; stroke-opacity: 0.9"/>
     <use xlink:href="#m7636fefc52" x="204.509297" y="37.850604" style="fill: #008000; fill-opacity: 0.9; stroke: #008000; stroke-opacity: 0.9"/>
     <use xlink:href="#m7636fefc52" x="212.7913" y="49.257571" style="fill: #008000; fill-opacity: 0.9; stroke: #008000; stroke-opacity: 0.9"/>
     <use xlink:href="#m7636fefc52" x="221.073304" y="40.403191" style="fill: #008000; fill-opacity: 0.9; stroke: #008000; stroke-opacity: 0.9"/>
     <use xlink:href="#m7636fefc52" x="229.355308" y="60.141679" style="fill: #008000; fill-opacity: 0.9; stroke: #008000; stroke-opacity: 0.9"/>
     <use xlink:href="#m7636fefc52" x="237.637311" y="35.665208" style="fill: #008000; fill-opacity: 0.9; stroke: #008000; stroke-opacity: 0.9"/>
     <use xlink:href="#m7636fefc52" x="245.919315" y="55.172246" style="fill: #008000; fill-opacity: 0.9; stroke: #008000; stroke-opacity: 0.9"/>
     <use xlink:href="#m7636fefc52" x="254.201319" y="36.719502" style="fill: #008000; fill-opacity: 0.9; stroke: #008000; stroke-opacity: 0.9"/>
     <use xlink:href="#m7636fefc52" x="262.483323" y="32.969633" style="fill: #008000; fill-opacity: 0.9; stroke: #008000; stroke-opacity: 0.9"/>
     <use xlink:href="#m7636fefc52" x="270.765326" y="49.981085" style="fill: #008000; fill-opacity: 0.9; stroke: #008000; stroke-opacity: 0.9"/>
     <use xlink:href="#m7636fefc52" x="279.04733" y="61.648245" style="fill: #008000; fill-opacity: 0.9; stroke: #008000; stroke-opacity: 0.9"/>
     <use xlink:href="#m7636fefc52" x="287.329334" y="66.955342" style="fill: #008000; fill-opacity: 0.9; stroke: #008000; stroke-opacity: 0.9"/>
     <use xlink:href="#m7636fefc52" x="295.611337" y="80.839418" style="fill: #008000; fill-opacity: 0.9; stroke: #008000; stroke-opacity: 0.9"/>
     <use xlink:href="#m7636fefc52" x="303.893341" y="106.723124" style="fill: #008000; fill-opacity: 0.9; stroke: #008000; stroke-opacity: 0.9"/>
     <use xlink:href="#m7636fefc52" x="312.175345" y="84.208811" style="fill: #008000; fill-opacity: 0.9; stroke: #008000; stroke-opacity: 0.9"/>
     <use xlink:href="#m7636fefc52" x="320.457349" y="117.663026" style="fill: #008000; fill-opacity: 0.9; stroke: #008000; stroke-opacity: 0.9"/>
     <use xlink:href="#m7636fefc52" x="328.739352" y="63.147202" style="fill: #008000; fill-opacity: 0.9; stroke: #008000; stroke-opacity: 0.9"/>
     <use xlink:href="#m7636fefc52" x="337.021356" y="102.909791" style="fill: #008000; fill-opacity: 0.9; stroke: #008000; stroke-opacity: 0.9"/>
     <use xlink:href="#m7636fefc52" x="345.30336" y="116.73771" style="fill: #008000; fill-opacity: 0.9; stroke: #008000; stroke-opacity: 0.9"/>
     <use xlink:href="#m7636fefc52" x="353.585363" y="122.884257" style="fill: #008000; fill-opacity: 0.9; stroke: #008000; stroke-opacity: 0.9"/>
     <use xlink:href="#m7636fefc52" x="361.867367" y="120.270381" style="fill: #008000; fill-opacity: 0.9; stroke: #008000; stroke-opacity: 0.9"/>
     <use xlink:href="#m7636fefc52" x="370.149371" y="143.043376" style="fill: #008000; fill-opacity: 0.9; stroke: #008000; stroke-opacity: 0.9"/>
     <use xlink:href="#m7636fefc52" x="378.431375" y="110.67884" style="fill: #008000; fill-opacity: 0.9; stroke: #008000; stroke-opacity: 0.9"/>
     <use xlink:href="#m7636fefc52" x="386.713378" y="77.385004" style="fill: #008000; fill-opacity: 0.9; stroke: #008000; stroke-opacity: 0.9"/>
     <use xlink:href="#m7636fefc52" x="394.995382" y="125.762493" style="fill: #008000; fill-opacity: 0.9; stroke: #008000; stroke-opacity: 0.9"/>
     <use xlink:href="#m7636fefc52" x="403.277386" y="120.150339" style="fill: #008000; fill-opacity: 0.9; stroke: #008000; stroke-opacity: 0.9"/>
     <use xlink:href="#m7636fefc52" x="411.559389" y="113.674461" style="fill: #008000; fill-opacity: 0.9; stroke: #008000; stroke-opacity: 0.9"/>
     <use xlink:href="#m7636fefc52" x="419.841393" y="119.540587" style="fill: #008000; fill-opacity: 0.9; stroke: #008000; stroke-opacity: 0.9"/>
     <use xlink:href="#m7636fefc52" x="428.123397" y="110.708428" style="fill: #008000; fill-opacity: 0.9; stroke: #008000; stroke-opacity: 0.9"/>
     <use xlink:href="#m7636fefc52" x="436.4054" y="118.899436" style="fill: #008000; fill-opacity: 0.9; stroke: #008000; stroke-opacity: 0.9"/>
     <use xlink:href="#m7636fefc52" x="444.687404" y="58.580285" style="fill: #008000; fill-opacity: 0.9; stroke: #008000; stroke-opacity: 0.9"/>
     <use xlink:href="#m7636fefc52" x="452.969408" y="94.316509" style="fill: #008000; fill-opacity: 0.9; stroke: #008000; stroke-opacity: 0.9"/>
     <use xlink:href="#m7636fefc52" x="461.251412" y="98.78633" style="fill: #008000; fill-opacity: 0.9; stroke: #008000; stroke-opacity: 0.9"/>
     <use xlink:href="#m7636fefc52" x="469.533415" y="96.964442" style="fill: #008000; fill-opacity: 0.9; stroke: #008000; stroke-opacity: 0.9"/>
     <use xlink:href="#m7636fefc52" x="477.815419" y="75.131979" style="fill: #008000; fill-opacity: 0.9; stroke: #008000; stroke-opacity: 0.9"/>
    </g>
   </g>
   <g id="line2d_15">
    <path d="M 71.997237 68.495722 
L 80.279241 49.317834 
L 88.561245 83.347261 
L 96.843248 70.5554 
L 105.125252 72.486823 
L 113.407256 88.116462 
L 121.689259 59.99217 
L 129.971263 58.118231 
L 138.253267 58.785226 
L 146.535271 40.520818 
L 154.817274 52.351798 
L 163.099278 58.845851 
L 171.381282 71.007189 
L 179.663285 52.921576 
L 187.945289 42.143139 
L 196.227293 50.021965 
L 204.509297 33.877618 
L 212.7913 46.801718 
L 221.073304 45.117927 
L 229.355308 66.548237 
L 237.637311 39.071375 
L 245.919315 52.259291 
L 254.201319 37.10191 
L 262.483323 34.001766 
L 270.765326 48.010533 
L 279.04733 64.598578 
L 287.329334 65.981841 
L 295.611337 82.010493 
L 303.893341 90.409703 
L 312.175345 72.803836 
L 320.457349 107.866665 
L 328.739352 51.077044 
L 337.021356 106.850653 
L 345.30336 94.303345 
L 353.585363 106.242713 
L 361.867367 111.273013 
L 370.149371 124.912415 
L 378.431375 85.485075 
L 386.713378 57.761486 
L 394.995382 101.402863 
L 403.277386 95.349307 
L 411.559389 116.111655 
L 419.841393 116.190637 
L 428.123397 101.059886 
L 436.4054 102.617415 
L 444.687404 37.061151 
L 452.969408 62.922818 
L 461.251412 91.720144 
L 469.533415 92.554763 
L 477.815419 83.208621 
" clip-path="url(#p7d34746b5a)" style="fill: none; stroke-dasharray: 4.81,2.08; stroke-dashoffset: 0; stroke: #d62728; stroke-opacity: 0.9; stroke-width: 1.3"/>
    <defs>
     <path id="mfa34aa7d54" d="M 0 1.8 
C 0.477366 1.8 0.935244 1.610341 1.272792 1.272792 
C 1.610341 0.935244 1.8 0.477366 1.8 0 
C 1.8 -0.477366 1.610341 -0.935244 1.272792 -1.272792 
C 0.935244 -1.610341 0.477366 -1.8 0 -1.8 
C -0.477366 -1.8 -0.935244 -1.610341 -1.272792 -1.272792 
C -1.610341 -0.935244 -1.8 -0.477366 -1.8 0 
C -1.8 0.477366 -1.610341 0.935244 -1.272792 1.272792 
C -0.935244 1.610341 -0.477366 1.8 0 1.8 
z
" style="stroke: #ff0000; stroke-opacity: 0.9"/>
    </defs>
    <g clip-path="url(#p7d34746b5a)">
     <use xlink:href="#mfa34aa7d54" x="71.997237" y="68.495722" style="fill: #ff0000; fill-opacity: 0.9; stroke: #ff0000; stroke-opacity: 0.9"/>
     <use xlink:href="#mfa34aa7d54" x="80.279241" y="49.317834" style="fill: #ff0000; fill-opacity: 0.9; stroke: #ff0000; stroke-opacity: 0.9"/>
     <use xlink:href="#mfa34aa7d54" x="88.561245" y="83.347261" style="fill: #ff0000; fill-opacity: 0.9; stroke: #ff0000; stroke-opacity: 0.9"/>
     <use xlink:href="#mfa34aa7d54" x="96.843248" y="70.5554" style="fill: #ff0000; fill-opacity: 0.9; stroke: #ff0000; stroke-opacity: 0.9"/>
     <use xlink:href="#mfa34aa7d54" x="105.125252" y="72.486823" style="fill: #ff0000; fill-opacity: 0.9; stroke: #ff0000; stroke-opacity: 0.9"/>
     <use xlink:href="#mfa34aa7d54" x="113.407256" y="88.116462" style="fill: #ff0000; fill-opacity: 0.9; stroke: #ff0000; stroke-opacity: 0.9"/>
     <use xlink:href="#mfa34aa7d54" x="121.689259" y="59.99217" style="fill: #ff0000; fill-opacity: 0.9; stroke: #ff0000; stroke-opacity: 0.9"/>
     <use xlink:href="#mfa34aa7d54" x="129.971263" y="58.118231" style="fill: #ff0000; fill-opacity: 0.9; stroke: #ff0000; stroke-opacity: 0.9"/>
     <use xlink:href="#mfa34aa7d54" x="138.253267" y="58.785226" style="fill: #ff0000; fill-opacity: 0.9; stroke: #ff0000; stroke-opacity: 0.9"/>
     <use xlink:href="#mfa34aa7d54" x="146.535271" y="40.520818" style="fill: #ff0000; fill-opacity: 0.9; stroke: #ff0000; stroke-opacity: 0.9"/>
     <use xlink:href="#mfa34aa7d54" x="154.817274" y="52.351798" style="fill: #ff0000; fill-opacity: 0.9; stroke: #ff0000; stroke-opacity: 0.9"/>
     <use xlink:href="#mfa34aa7d54" x="163.099278" y="58.845851" style="fill: #ff0000; fill-opacity: 0.9; stroke: #ff0000; stroke-opacity: 0.9"/>
     <use xlink:href="#mfa34aa7d54" x="171.381282" y="71.007189" style="fill: #ff0000; fill-opacity: 0.9; stroke: #ff0000; stroke-opacity: 0.9"/>
     <use xlink:href="#mfa34aa7d54" x="179.663285" y="52.921576" style="fill: #ff0000; fill-opacity: 0.9; stroke: #ff0000; stroke-opacity: 0.9"/>
     <use xlink:href="#mfa34aa7d54" x="187.945289" y="42.143139" style="fill: #ff0000; fill-opacity: 0.9; stroke: #ff0000; stroke-opacity: 0.9"/>
     <use xlink:href="#mfa34aa7d54" x="196.227293" y="50.021965" style="fill: #ff0000; fill-opacity: 0.9; stroke: #ff0000; stroke-opacity: 0.9"/>
     <use xlink:href="#mfa34aa7d54" x="204.509297" y="33.877618" style="fill: #ff0000; fill-opacity: 0.9; stroke: #ff0000; stroke-opacity: 0.9"/>
     <use xlink:href="#mfa34aa7d54" x="212.7913" y="46.801718" style="fill: #ff0000; fill-opacity: 0.9; stroke: #ff0000; stroke-opacity: 0.9"/>
     <use xlink:href="#mfa34aa7d54" x="221.073304" y="45.117927" style="fill: #ff0000; fill-opacity: 0.9; stroke: #ff0000; stroke-opacity: 0.9"/>
     <use xlink:href="#mfa34aa7d54" x="229.355308" y="66.548237" style="fill: #ff0000; fill-opacity: 0.9; stroke: #ff0000; stroke-opacity: 0.9"/>
     <use xlink:href="#mfa34aa7d54" x="237.637311" y="39.071375" style="fill: #ff0000; fill-opacity: 0.9; stroke: #ff0000; stroke-opacity: 0.9"/>
     <use xlink:href="#mfa34aa7d54" x="245.919315" y="52.259291" style="fill: #ff0000; fill-opacity: 0.9; stroke: #ff0000; stroke-opacity: 0.9"/>
     <use xlink:href="#mfa34aa7d54" x="254.201319" y="37.10191" style="fill: #ff0000; fill-opacity: 0.9; stroke: #ff0000; stroke-opacity: 0.9"/>
     <use xlink:href="#mfa34aa7d54" x="262.483323" y="34.001766" style="fill: #ff0000; fill-opacity: 0.9; stroke: #ff0000; stroke-opacity: 0.9"/>
     <use xlink:href="#mfa34aa7d54" x="270.765326" y="48.010533" style="fill: #ff0000; fill-opacity: 0.9; stroke: #ff0000; stroke-opacity: 0.9"/>
     <use xlink:href="#mfa34aa7d54" x="279.04733" y="64.598578" style="fill: #ff0000; fill-opacity: 0.9; stroke: #ff0000; stroke-opacity: 0.9"/>
     <use xlink:href="#mfa34aa7d54" x="287.329334" y="65.981841" style="fill: #ff0000; fill-opacity: 0.9; stroke: #ff0000; stroke-opacity: 0.9"/>
     <use xlink:href="#mfa34aa7d54" x="295.611337" y="82.010493" style="fill: #ff0000; fill-opacity: 0.9; stroke: #ff0000; stroke-opacity: 0.9"/>
     <use xlink:href="#mfa34aa7d54" x="303.893341" y="90.409703" style="fill: #ff0000; fill-opacity: 0.9; stroke: #ff0000; stroke-opacity: 0.9"/>
     <use xlink:href="#mfa34aa7d54" x="312.175345" y="72.803836" style="fill: #ff0000; fill-opacity: 0.9; stroke: #ff0000; stroke-opacity: 0.9"/>
     <use xlink:href="#mfa34aa7d54" x="320.457349" y="107.866665" style="fill: #ff0000; fill-opacity: 0.9; stroke: #ff0000; stroke-opacity: 0.9"/>
     <use xlink:href="#mfa34aa7d54" x="328.739352" y="51.077044" style="fill: #ff0000; fill-opacity: 0.9; stroke: #ff0000; stroke-opacity: 0.9"/>
     <use xlink:href="#mfa34aa7d54" x="337.021356" y="106.850653" style="fill: #ff0000; fill-opacity: 0.9; stroke: #ff0000; stroke-opacity: 0.9"/>
     <use xlink:href="#mfa34aa7d54" x="345.30336" y="94.303345" style="fill: #ff0000; fill-opacity: 0.9; stroke: #ff0000; stroke-opacity: 0.9"/>
     <use xlink:href="#mfa34aa7d54" x="353.585363" y="106.242713" style="fill: #ff0000; fill-opacity: 0.9; stroke: #ff0000; stroke-opacity: 0.9"/>
     <use xlink:href="#mfa34aa7d54" x="361.867367" y="111.273013" style="fill: #ff0000; fill-opacity: 0.9; stroke: #ff0000; stroke-opacity: 0.9"/>
     <use xlink:href="#mfa34aa7d54" x="370.149371" y="124.912415" style="fill: #ff0000; fill-opacity: 0.9; stroke: #ff0000; stroke-opacity: 0.9"/>
     <use xlink:href="#mfa34aa7d54" x="378.431375" y="85.485075" style="fill: #ff0000; fill-opacity: 0.9; stroke: #ff0000; stroke-opacity: 0.9"/>
     <use xlink:href="#mfa34aa7d54" x="386.713378" y="57.761486" style="fill: #ff0000; fill-opacity: 0.9; stroke: #ff0000; stroke-opacity: 0.9"/>
     <use xlink:href="#mfa34aa7d54" x="394.995382" y="101.402863" style="fill: #ff0000; fill-opacity: 0.9; stroke: #ff0000; stroke-opacity: 0.9"/>
     <use xlink:href="#mfa34aa7d54" x="403.277386" y="95.349307" style="fill: #ff0000; fill-opacity: 0.9; stroke: #ff0000; stroke-opacity: 0.9"/>
     <use xlink:href="#mfa34aa7d54" x="411.559389" y="116.111655" style="fill: #ff0000; fill-opacity: 0.9; stroke: #ff0000; stroke-opacity: 0.9"/>
     <use xlink:href="#mfa34aa7d54" x="419.841393" y="116.190637" style="fill: #ff0000; fill-opacity: 0.9; stroke: #ff0000; stroke-opacity: 0.9"/>
     <use xlink:href="#mfa34aa7d54" x="428.123397" y="101.059886" style="fill: #ff0000; fill-opacity: 0.9; stroke: #ff0000; stroke-opacity: 0.9"/>
     <use xlink:href="#mfa34aa7d54" x="436.4054" y="102.617415" style="fill: #ff0000; fill-opacity: 0.9; stroke: #ff0000; stroke-opacity: 0.9"/>
     <use xlink:href="#mfa34aa7d54" x="444.687404" y="37.061151" style="fill: #ff0000; fill-opacity: 0.9; stroke: #ff0000; stroke-opacity: 0.9"/>
     <use xlink:href="#mfa34aa7d54" x="452.969408" y="62.922818" style="fill: #ff0000; fill-opacity: 0.9; stroke: #ff0000; stroke-opacity: 0.9"/>
     <use xlink:href="#mfa34aa7d54" x="461.251412" y="91.720144" style="fill: #ff0000; fill-opacity: 0.9; stroke: #ff0000; stroke-opacity: 0.9"/>
     <use xlink:href="#mfa34aa7d54" x="469.533415" y="92.554763" style="fill: #ff0000; fill-opacity: 0.9; stroke: #ff0000; stroke-opacity: 0.9"/>
     <use xlink:href="#mfa34aa7d54" x="477.815419" y="83.208621" style="fill: #ff0000; fill-opacity: 0.9; stroke: #ff0000; stroke-opacity: 0.9"/>
    </g>
   </g>
   <g id="patch_3">
    <path d="M 51.706328 201.24 
L 51.706328 7.2 
" style="fill: none; stroke: #000000; stroke-width: 0.8; stroke-linejoin: miter; stroke-linecap: square"/>
   </g>
   <g id="patch_4">
    <path d="M 498.106328 201.24 
L 498.106328 7.2 
" style="fill: none; stroke: #000000; stroke-width: 0.8; stroke-linejoin: miter; stroke-linecap: square"/>
   </g>
   <g id="patch_5">
    <path d="M 51.706328 201.24 
L 498.106328 201.24 
" style="fill: none; stroke: #000000; stroke-width: 0.8; stroke-linejoin: miter; stroke-linecap: square"/>
   </g>
   <g id="patch_6">
    <path d="M 51.706328 7.2 
L 498.106328 7.2 
" style="fill: none; stroke: #000000; stroke-width: 0.8; stroke-linejoin: miter; stroke-linecap: square"/>
   </g>
   <g id="legend_1">
    <g id="patch_7">
     <path d="M 59.756328 195.49 
L 191.817656 195.49 
Q 194.117656 195.49 194.117656 193.19 
L 194.117656 142.96375 
Q 194.117656 140.66375 191.817656 140.66375 
L 59.756328 140.66375 
Q 57.456328 140.66375 57.456328 142.96375 
L 57.456328 193.19 
Q 57.456328 195.49 59.756328 195.49 
z
" style="fill: #ffffff; opacity: 0.8; stroke: #cccccc; stroke-linejoin: miter"/>
    </g>
    <g id="line2d_16">
     <path d="M 62.056328 149.852969 
L 73.556328 149.852969 
L 85.056328 149.852969 
" style="fill: none; stroke: #000000; stroke-opacity: 0.5; stroke-width: 1.3; stroke-linecap: square"/>
     <g>
      <use xlink:href="#mfb6d9d302b" x="73.556328" y="149.852969" style="fill-opacity: 0.5; stroke: #000000; stroke-opacity: 0.5"/>
     </g>
    </g>
    <g id="text_15">
     <!-- 実測値 -->
     <g transform="translate(94.256328 153.877969) scale(0.115 -0.115)">
      <defs>
       <path id="IPAexGothic-5b9f" d="M 3525 1275 
Q 4288 350 6022 91 
L 5738 -375 
Q 3953 -41 3219 1050 
Q 2731 -144 728 -472 
L 466 -44 
Q 2422 150 2872 1275 
L 384 1275 
L 384 1659 
L 2950 1659 
L 2950 2144 
L 966 2144 
L 966 2509 
L 2950 2509 
L 2950 2969 
L 1266 2969 
L 1266 3341 
L 2950 3341 
L 2950 3988 
L 3403 3988 
L 3403 3341 
L 5125 3341 
L 5125 2969 
L 3403 2969 
L 3403 2509 
L 5444 2509 
L 5444 2144 
L 3403 2144 
L 3403 1659 
L 6016 1659 
L 6016 1275 
L 3525 1275 
z
M 3413 4544 
L 5778 4544 
L 5778 3269 
L 5309 3269 
L 5309 4147 
L 1084 4147 
L 1084 3269 
L 616 3269 
L 616 4544 
L 2938 4544 
L 2938 5313 
L 3413 5313 
L 3413 4544 
z
" transform="scale(0.015625)"/>
       <path id="IPAexGothic-6e2c" d="M 3856 4884 
L 3856 1081 
L 2059 1081 
L 2059 4884 
L 3856 4884 
z
M 2456 4494 
L 2456 3756 
L 3459 3756 
L 3459 4494 
L 2456 4494 
z
M 2456 3384 
L 2456 2656 
L 3459 2656 
L 3459 3384 
L 2456 3384 
z
M 2456 2284 
L 2456 1478 
L 3459 1478 
L 3459 2284 
L 2456 2284 
z
M 1413 3891 
Q 1000 4428 556 4763 
L 856 5100 
Q 1309 4753 1734 4269 
L 1413 3891 
z
M 1222 2394 
Q 816 2878 325 3256 
L 625 3591 
Q 1141 3231 1528 2778 
L 1222 2394 
z
M 375 -78 
Q 916 800 1297 1906 
L 1669 1619 
Q 1284 478 759 -428 
L 375 -78 
z
M 3819 -256 
Q 3478 319 3128 716 
L 3469 966 
Q 3834 581 4172 63 
L 3819 -256 
z
M 4378 4513 
L 4806 4513 
L 4806 959 
L 4378 959 
L 4378 4513 
z
M 1638 -109 
Q 2103 300 2450 984 
L 2828 763 
Q 2425 -6 1944 -488 
L 1638 -109 
z
M 5419 5081 
L 5853 5081 
L 5853 109 
Q 5853 -391 5297 -391 
Q 4919 -391 4541 -359 
L 4441 109 
Q 4928 50 5219 50 
Q 5419 50 5419 244 
L 5419 5081 
z
" transform="scale(0.015625)"/>
       <path id="IPAexGothic-5024" d="M 4172 3675 
L 5453 3675 
L 5453 684 
L 3019 684 
L 3019 3675 
L 3750 3675 
Q 3788 3884 3825 4153 
L 2141 4153 
L 2141 4544 
L 3884 4544 
Q 3922 4844 3966 5325 
L 4434 5272 
L 4388 4953 
Q 4331 4578 4331 4544 
L 5863 4544 
L 5863 4153 
L 4269 4153 
Q 4200 3781 4172 3675 
z
M 5038 3316 
L 3434 3316 
L 3434 2803 
L 5038 2803 
L 5038 3316 
z
M 3434 2450 
L 3434 1941 
L 5038 1941 
L 5038 2450 
L 3434 2450 
z
M 3434 1588 
L 3434 1044 
L 5038 1044 
L 5038 1588 
L 3434 1588 
z
M 1509 3669 
L 1509 -447 
L 1069 -447 
L 1069 2725 
Q 856 2338 531 1875 
L 288 2266 
Q 1163 3531 1541 5325 
L 1975 5222 
Q 1791 4378 1509 3669 
z
M 2488 244 
L 6031 244 
L 6031 -153 
L 2488 -153 
L 2488 -447 
L 2059 -447 
L 2059 3213 
L 2488 3213 
L 2488 244 
z
" transform="scale(0.015625)"/>
      </defs>
      <use xlink:href="#IPAexGothic-5b9f"/>
      <use xlink:href="#IPAexGothic-6e2c" x="100"/>
      <use xlink:href="#IPAexGothic-5024" x="200"/>
     </g>
    </g>
    <g id="line2d_17">
     <path d="M 62.056328 167.266484 
L 73.556328 167.266484 
L 85.056328 167.266484 
" style="fill: none; stroke-dasharray: 4.81,2.08; stroke-dashoffset: 0; stroke: #2ca02c; stroke-opacity: 0.9; stroke-width: 1.3"/>
     <g>
      <use xlink:href="#m7636fefc52" x="73.556328" y="167.266484" style="fill: #008000; fill-opacity: 0.9; stroke: #008000; stroke-opacity: 0.9"/>
     </g>
    </g>
    <g id="text_16">
     <!-- 予測値(入力長-10) -->
     <g transform="translate(94.256328 171.291484) scale(0.115 -0.115)">
      <defs>
       <path id="IPAexGothic-4e88" d="M 3541 3491 
Q 3644 3419 3816 3300 
Q 3944 3213 3997 3175 
L 3663 2894 
L 5603 2894 
L 5872 2625 
Q 5181 1709 4463 1069 
L 4066 1378 
Q 4722 1878 5153 2466 
L 3509 2466 
L 3509 147 
Q 3509 -150 3388 -263 
Q 3266 -384 2822 -384 
Q 2341 -384 1863 -331 
L 1766 172 
Q 2416 84 2766 84 
Q 3022 84 3022 334 
L 3022 2466 
L 513 2466 
L 513 2894 
L 3553 2894 
Q 2809 3488 1947 3963 
L 2247 4291 
Q 2741 4009 3181 3725 
Q 3941 4191 4400 4591 
L 1159 4591 
L 1159 5006 
L 4975 5006 
L 5250 4725 
Q 4428 4044 3541 3491 
z
" transform="scale(0.015625)"/>
       <path id="IPAexGothic-28" d="M 1928 -1016 
L 1653 -1166 
Q 488 69 488 1875 
Q 488 3678 1653 4909 
L 1928 4763 
Q 1006 3522 1006 1881 
Q 1006 203 1928 -1016 
z
" transform="scale(0.015625)"/>
       <path id="IPAexGothic-5165" d="M 3275 3078 
Q 2806 619 819 -334 
L 447 91 
Q 2934 1156 3000 4550 
L 1472 4550 
L 1472 4984 
L 3525 4984 
L 3525 4728 
Q 3525 3053 4116 2041 
Q 4734 972 6022 275 
L 5650 -200 
Q 3697 1044 3275 3078 
z
" transform="scale(0.015625)"/>
       <path id="IPAexGothic-9577" d="M 1913 4581 
L 1913 4128 
L 5131 4128 
L 5131 3744 
L 1913 3744 
L 1913 3284 
L 5131 3284 
L 5131 2900 
L 1913 2900 
L 1913 2413 
L 6041 2413 
L 6041 2016 
L 3384 2016 
Q 3603 1503 4063 1063 
Q 4709 1478 5259 1984 
L 5650 1709 
Q 4950 1134 4378 788 
Q 5044 272 6066 6 
L 5766 -409 
Q 3613 259 2931 2016 
L 1913 2016 
L 1913 269 
Q 2741 466 3409 666 
L 3450 281 
Q 2244 -131 769 -456 
L 575 -6 
Q 1447 159 1453 159 
L 1453 2016 
L 353 2016 
L 353 2413 
L 1453 2413 
L 1453 4978 
L 5356 4978 
L 5356 4581 
L 1913 4581 
z
" transform="scale(0.015625)"/>
       <path id="IPAexGothic-2d" d="M 1969 1703 
L 319 1703 
L 319 2203 
L 1969 2203 
L 1969 1703 
z
" transform="scale(0.015625)"/>
       <path id="IPAexGothic-31" d="M 2463 63 
L 1900 63 
L 1900 4103 
Q 1372 3922 788 3797 
L 684 4231 
Q 1519 4441 2106 4731 
L 2463 4731 
L 2463 63 
z
" transform="scale(0.015625)"/>
       <path id="IPAexGothic-29" d="M 466 4909 
Q 1638 3672 1638 1875 
Q 1638 75 466 -1166 
L 191 -1016 
Q 1119 216 1119 1881 
Q 1119 3509 191 4763 
L 466 4909 
z
" transform="scale(0.015625)"/>
      </defs>
      <use xlink:href="#IPAexGothic-4e88"/>
      <use xlink:href="#IPAexGothic-6e2c" x="100"/>
      <use xlink:href="#IPAexGothic-5024" x="200"/>
      <use xlink:href="#IPAexGothic-28" x="300"/>
      <use xlink:href="#IPAexGothic-5165" x="333.300781"/>
      <use xlink:href="#IPAexGothic-529b" x="433.300781"/>
      <use xlink:href="#IPAexGothic-9577" x="533.300781"/>
      <use xlink:href="#IPAexGothic-2d" x="633.300781"/>
      <use xlink:href="#IPAexGothic-31" x="669.091797"/>
      <use xlink:href="#IPAexGothic-30" x="732.080078"/>
      <use xlink:href="#IPAexGothic-29" x="795.068359"/>
     </g>
    </g>
    <g id="line2d_18">
     <path d="M 62.056328 184.68 
L 73.556328 184.68 
L 85.056328 184.68 
" style="fill: none; stroke-dasharray: 4.81,2.08; stroke-dashoffset: 0; stroke: #d62728; stroke-opacity: 0.9; stroke-width: 1.3"/>
     <g>
      <use xlink:href="#mfa34aa7d54" x="73.556328" y="184.68" style="fill: #ff0000; fill-opacity: 0.9; stroke: #ff0000; stroke-opacity: 0.9"/>
     </g>
    </g>
    <g id="text_17">
     <!-- 予測値(入力長-50) -->
     <g transform="translate(94.256328 188.705) scale(0.115 -0.115)">
      <use xlink:href="#IPAexGothic-4e88"/>
      <use xlink:href="#IPAexGothic-6e2c" x="100"/>
      <use xlink:href="#IPAexGothic-5024" x="200"/>
      <use xlink:href="#IPAexGothic-28" x="300"/>
      <use xlink:href="#IPAexGothic-5165" x="333.300781"/>
      <use xlink:href="#IPAexGothic-529b" x="433.300781"/>
      <use xlink:href="#IPAexGothic-9577" x="533.300781"/>
      <use xlink:href="#IPAexGothic-2d" x="633.300781"/>
      <use xlink:href="#IPAexGothic-35" x="669.091797"/>
      <use xlink:href="#IPAexGothic-30" x="732.080078"/>
      <use xlink:href="#IPAexGothic-29" x="795.068359"/>
     </g>
    </g>
   </g>
  </g>
 </g>
 <defs>
  <clipPath id="p7d34746b5a">
   <rect x="51.706328" y="7.2" width="446.4" height="194.04"/>
  </clipPath>
 </defs>
</svg>
